<svg width="9" height="10" viewBox="0 0 9 10" fill="none" xmlns="http://www.w3.org/2000/svg">
<path d="M4.49999 0.535645C2.03437 0.535645 0.0357056 2.53431 0.0357056 4.99993C0.0357056 7.46555 2.03437 9.46422 4.49999 9.46422C6.96562 9.46422 8.96428 7.46555 8.96428 4.99993C8.96428 2.53431 6.96562 0.535645 4.49999 0.535645ZM6.28571 5.44636H4.94642V6.78564C4.94642 7.03207 4.74642 7.23207 4.49999 7.23207C4.25356 7.23207 4.05356 7.03207 4.05356 6.78564V5.44636H2.71428C2.46785 5.44636 2.26785 5.24636 2.26785 4.99993C2.26785 4.7535 2.46785 4.5535 2.71428 4.5535H4.05356V3.21422C4.05356 2.96779 4.25356 2.76779 4.49999 2.76779C4.74642 2.76779 4.94642 2.96779 4.94642 3.21422V4.5535H6.28571C6.53213 4.5535 6.73213 4.7535 6.73213 4.99993C6.73213 5.24636 6.53213 5.44636 6.28571 5.44636Z" fill="#583DFF"/>
</svg>
