<svg width="16" height="13" viewBox="0 0 16 13" fill="none" xmlns="http://www.w3.org/2000/svg">
<path d="M6.62498 0.0187988C5.35597 0.0187988 4.30717 1.01042 4.21078 2.25603H3.642C3.16431 2.25603 2.73379 2.47608 2.39375 2.78694C2.05372 3.09779 1.78134 3.50391 1.55625 3.97037C1.10606 4.9033 0.845459 6.08773 0.845459 7.28981V10.6457C0.845459 11.7716 1.77027 12.6965 2.89626 12.6965H12.9638C14.0898 12.6965 15.0146 11.7716 15.0146 10.6457V7.28981C15.0146 6.08773 14.754 4.9033 14.3038 3.97037C14.0787 3.50391 13.8064 3.09779 13.4663 2.78694C13.1263 2.47608 12.6958 2.25603 12.2181 2.25603H11.6493C11.5529 1.01042 10.5041 0.0187988 9.23509 0.0187988H6.62498ZM6.62498 1.13742H9.23509C9.8983 1.13742 10.4323 1.61977 10.5219 2.25603H5.33814C5.42779 1.61977 5.96177 1.13742 6.62498 1.13742ZM3.82844 3.37465H12.0316V4.58066C12.0316 5.15776 11.8921 5.65843 11.6529 6.00296C11.4138 6.3475 11.0961 6.56174 10.5802 6.61907L9.75216 6.71084C9.6483 6.09649 9.13058 5.61188 8.48935 5.61188H7.37073C6.72949 5.61188 6.21177 6.09649 6.10791 6.71084L5.27987 6.61907C4.76399 6.56174 4.4463 6.3475 4.20714 6.00296C3.96798 5.65843 3.82844 5.15776 3.82844 4.58066V3.37465ZM2.70982 4.18302V4.58066C2.70982 5.33359 2.88391 6.05693 3.28879 6.64019C3.69368 7.22346 4.35012 7.64156 5.15607 7.73114L6.06567 7.83164V8.03555C6.06567 8.74959 6.65669 9.3406 7.37073 9.3406H8.48935C9.20338 9.3406 9.7944 8.74959 9.7944 8.03555V7.83164L10.704 7.73114C11.51 7.64156 12.1664 7.22346 12.5713 6.64019C12.9762 6.05693 13.1503 5.33359 13.1503 4.58066V4.18302C13.2005 4.26882 13.2497 4.3596 13.2966 4.45685C13.6561 5.20185 13.896 6.25465 13.896 7.28981V10.6457C13.896 11.167 13.4852 11.5778 12.9638 11.5778H2.89626C2.3749 11.5778 1.96408 11.167 1.96408 10.6457V7.28981C1.96408 6.25465 2.20394 5.20185 2.56344 4.45685C2.61037 4.3596 2.65959 4.26882 2.70982 4.18302ZM7.37073 6.7305H8.48935C8.59936 6.7305 8.67578 6.80692 8.67578 6.91694V8.03555C8.67578 8.14557 8.59936 8.22199 8.48935 8.22199H7.37073C7.26071 8.22199 7.18429 8.14557 7.18429 8.03555V6.91694C7.18429 6.80692 7.26071 6.7305 7.37073 6.7305Z" fill="white" fill-opacity="0.51"/>
</svg>
