<svg width="17" height="22" viewBox="0 0 17 22" fill="none" xmlns="http://www.w3.org/2000/svg">
<path d="M8.45413 20.3313C8.32232 19.9046 8.11459 19.3572 7.85208 18.8272C7.57681 18.2714 7.20167 17.6527 6.7342 17.2355L8.45413 20.3313ZM8.45413 20.3313C8.58595 19.9046 8.79369 19.3573 9.0562 18.8274C9.33151 18.2717 9.70656 17.6532 10.1737 17.2358L10.1741 17.2355C10.3152 17.1095 10.5361 16.9644 10.7308 16.8367C10.7706 16.8105 10.8117 16.7837 10.8541 16.756C11.0464 16.6303 11.2646 16.4876 11.5069 16.3213C12.0958 15.9171 12.8031 15.3888 13.4846 14.7231C14.8489 13.3903 16.0634 11.5551 16.0634 9.10402C16.0634 4.94383 12.6625 1.56034 8.45413 1.56034C4.24574 1.56034 0.84483 4.94383 0.84483 9.10402C0.84483 11.5551 2.0594 13.3903 3.42364 14.7231C4.10512 15.3888 4.8125 15.9171 5.40135 16.3213C5.64367 16.4876 5.86187 16.6303 6.05412 16.756C6.09649 16.7837 6.1376 16.8105 6.17743 16.8367C6.37214 16.9644 6.59301 17.1095 6.73416 17.2355L8.45413 20.3313Z" fill="white" stroke="black" stroke-width="1.62069"/>
</svg>
