<svg width="10" height="12" viewBox="0 0 10 12" fill="none" xmlns="http://www.w3.org/2000/svg">
<path d="M5.67924 10.1711C5.57288 10.3858 5.4831 10.6057 5.41459 10.7999L5.01373 11.1838C4.88846 10.7575 4.57796 10.0057 4.20216 9.67027L4.5351 9.29724C4.53509 9.29723 4.53508 9.29723 4.53508 9.29722C4.45516 9.2259 4.33238 9.14537 4.22978 9.07808L4.22869 9.07736C4.20719 9.06326 4.18505 9.04878 4.16226 9.03388C4.05912 8.96646 3.94275 8.89038 3.8134 8.80159C3.4991 8.58585 3.12284 8.30476 2.76085 7.95111C2.03606 7.24305 1.39673 6.27408 1.39673 4.98264C1.39673 2.78683 3.19194 1 5.41458 1C7.63723 1 9.43244 2.78683 9.43244 4.98264C9.43244 6.27408 8.79311 7.24305 8.06832 7.95111C7.70632 8.30476 7.33007 8.58585 7.01577 8.80159C6.88642 8.89038 6.77005 8.96645 6.66692 9.03388C6.64413 9.04878 6.62198 9.06326 6.60048 9.07736L6.59939 9.07808C6.49678 9.14538 6.37398 9.22591 6.29407 9.29724L6.29387 9.29742C6.03378 9.52981 5.82809 9.87068 5.67924 10.1711ZM5.33574 11.0428C5.33573 11.0428 5.33573 11.0428 5.33573 11.0428L5.33574 11.0428L5.33574 11.0428Z" fill="white" stroke="#B2B0BC"/>
</svg>
