<svg width="15" height="10" viewBox="0 0 15 10" fill="none" xmlns="http://www.w3.org/2000/svg">
<path d="M7.24665 0.0759825C7.17415 0.0749571 7.10216 0.0883515 7.03488 0.115387C6.96761 0.142423 6.90637 0.18256 6.85474 0.233467C6.80311 0.284374 6.76211 0.345036 6.73412 0.411926C6.70614 0.478816 6.69173 0.550601 6.69173 0.623109C6.69173 0.695617 6.70614 0.767402 6.73412 0.834292C6.76211 0.901182 6.80311 0.961843 6.85474 1.01275C6.90637 1.06366 6.96761 1.1038 7.03488 1.13083C7.10216 1.15787 7.17415 1.17126 7.24665 1.17024H8.55569L9.12526 2.26449H8.2522L6.61083 2.81161H5.14684L3.50546 2.26449H1.22826C1.15576 2.26346 1.08378 2.27686 1.0165 2.30389C0.949218 2.33093 0.887983 2.37107 0.836351 2.42197C0.784719 2.47288 0.743719 2.53354 0.715735 2.60043C0.687751 2.66732 0.67334 2.73911 0.67334 2.81161C0.67334 2.88412 0.687751 2.95591 0.715735 3.0228C0.743719 3.08969 0.784719 3.15035 0.836351 3.20126C0.887983 3.25216 0.949218 3.2923 1.0165 3.31934C1.08378 3.34637 1.15576 3.35977 1.22826 3.35874H3.32807L4.47255 3.74023L5.39796 4.43376L4.44797 5.38375C4.0684 5.14397 3.62251 5.00012 3.1432 5.00012C1.78992 5.00012 0.681132 6.10891 0.681132 7.46219C0.681132 8.81547 1.78992 9.92426 3.1432 9.92426C4.43912 9.92426 5.49964 8.90454 5.58817 7.62996L8.42639 7.18222C8.55512 7.16184 8.67236 7.09618 8.75699 6.99705C8.84162 6.89792 8.88809 6.77184 8.88802 6.6415V5.00012L8.91688 4.97127C9.52422 4.86131 9.97799 4.42989 9.98121 3.91121L10.8585 5.59747C10.3276 6.05012 9.98228 6.71467 9.98228 7.46219C9.98228 8.81547 11.0911 9.92426 12.4443 9.92426C13.7976 9.92426 14.9064 8.81547 14.9064 7.46219C14.9064 6.10891 13.7976 5.00012 12.4443 5.00012C12.2301 5.00012 12.0253 5.03664 11.8267 5.08882L11.0658 3.62696C11.1088 3.5916 11.108 3.58495 11.1748 3.5404C11.3333 3.43475 11.5325 3.35874 11.6237 3.35874H13.265C13.3375 3.35977 13.4095 3.34637 13.4768 3.31934C13.5441 3.2923 13.6053 3.25216 13.6569 3.20126C13.7086 3.15035 13.7496 3.08969 13.7776 3.0228C13.8055 2.95591 13.82 2.88412 13.82 2.81161C13.82 2.73911 13.8055 2.66732 13.7776 2.60043C13.7496 2.53354 13.7086 2.47288 13.6569 2.42197C13.6053 2.37107 13.5441 2.33093 13.4768 2.30389C13.4095 2.27686 13.3375 2.26346 13.265 2.26449H11.6237C11.1697 2.26449 10.8238 2.46037 10.5721 2.62781L10.5198 2.57545L9.52705 0.665853C9.33936 0.304656 8.96317 0.0759825 8.55569 0.0759825H7.24665ZM6.37894 5.00012H7.79377V6.17345L5.4236 6.54746C5.36824 6.4107 5.29964 6.28089 5.22164 6.15742L6.37894 5.00012ZM3.1432 6.09437C3.63218 6.09437 4.05468 6.34571 4.29623 6.72592L3.05771 6.92147C2.9867 6.9327 2.9186 6.9578 2.8573 6.99535C2.79599 7.0329 2.74268 7.08215 2.70041 7.1403C2.65814 7.19844 2.62773 7.26435 2.61093 7.33425C2.59413 7.40415 2.59126 7.47667 2.60249 7.54768C2.61371 7.61869 2.63881 7.68679 2.67636 7.74809C2.71391 7.8094 2.76316 7.86271 2.82131 7.90498C2.87946 7.94725 2.94536 7.97766 3.01526 7.99446C3.08516 8.01126 3.15768 8.01413 3.22869 8.0029L4.46186 7.80842C4.30992 8.39871 3.78454 8.83001 3.1432 8.83001C2.3813 8.83001 1.77538 8.22409 1.77538 7.46219C1.77538 6.70028 2.3813 6.09437 3.1432 6.09437ZM12.4443 6.09437C13.2062 6.09437 13.8122 6.70028 13.8122 7.46219C13.8122 8.22409 13.2062 8.83001 12.4443 8.83001C11.6824 8.83001 11.0765 8.22409 11.0765 7.46219C11.0765 7.13423 11.1935 6.83944 11.3822 6.60517L11.9592 7.71438C11.9906 7.78095 12.0352 7.8405 12.0902 7.88945C12.1451 7.93841 12.2094 7.97576 12.2792 7.99928C12.349 8.0228 12.4228 8.032 12.4962 8.02633C12.5696 8.02066 12.6411 8.00023 12.7064 7.96628C12.7717 7.93232 12.8295 7.88553 12.8763 7.82871C12.9231 7.7719 12.958 7.70621 12.9788 7.6356C12.9997 7.56499 13.006 7.4909 12.9975 7.41777C12.9891 7.34464 12.9659 7.27397 12.9295 7.21L12.3546 6.10292C12.3848 6.10098 12.4136 6.09437 12.4443 6.09437Z" fill="black"/>
</svg>
