<svg width="11" height="11" viewBox="0 0 11 11" fill="none" xmlns="http://www.w3.org/2000/svg">
<path d="M10.4258 7.80078C10.5716 7.80078 10.6992 7.85547 10.8086 7.96484C10.9362 8.07422 11 8.21094 11 8.375V10.4258C11 10.5716 10.9362 10.7083 10.8086 10.8359C10.6992 10.9453 10.5716 11 10.4258 11C8.62109 11 6.95312 10.5625 5.42188 9.6875C3.90885 8.79427 2.70573 7.59115 1.8125 6.07812C0.9375 4.54688 0.5 2.87891 0.5 1.07422C0.5 0.928385 0.554688 0.800781 0.664062 0.691406C0.791667 0.563802 0.928385 0.5 1.07422 0.5H3.125C3.28906 0.5 3.42578 0.563802 3.53516 0.691406C3.64453 0.800781 3.69922 0.928385 3.69922 1.07422C3.69922 1.80339 3.80859 2.49609 4.02734 3.15234C4.10026 3.38932 4.05469 3.58984 3.89062 3.75391L2.60547 5.03906C3.46224 6.73438 4.7474 8.01953 6.46094 8.89453L7.74609 7.60938C7.91016 7.44531 8.11068 7.39974 8.34766 7.47266C9.00391 7.69141 9.69661 7.80078 10.4258 7.80078ZM9.82422 5.75C9.82422 4.61979 9.42318 3.66276 8.62109 2.87891C7.83724 2.07682 6.88021 1.67578 5.75 1.67578V0.5C7.20833 0.5 8.44792 1.01042 9.46875 2.03125C10.4896 3.05208 11 4.29167 11 5.75H9.82422ZM7.5 5.75C7.5 5.25781 7.32682 4.84766 6.98047 4.51953C6.65234 4.17318 6.24219 4 5.75 4V2.82422C6.55208 2.82422 7.23568 3.11589 7.80078 3.69922C8.38411 4.26432 8.67578 4.94792 8.67578 5.75H7.5Z" fill="#A6A6A6"/>
</svg>
