<svg width="14" height="15" viewBox="0 0 14 15" fill="none" xmlns="http://www.w3.org/2000/svg">
<path d="M13.6666 7.49992C13.6666 11.1759 10.6759 14.1666 6.99992 14.1666C5.93892 14.1666 4.88725 13.9099 3.94492 13.4236L1.39125 14.1366C1.31759 14.1566 1.24259 14.1666 1.16792 14.1666C0.949585 14.1666 0.735919 14.0806 0.577585 13.9226C0.365252 13.7099 0.283585 13.3986 0.364252 13.1096L1.07725 10.5573C0.589919 9.61392 0.333252 8.56159 0.333252 7.49992C0.333252 3.82359 3.32392 0.833252 6.99992 0.833252C10.6759 0.833252 13.6666 3.82359 13.6666 7.49992ZM6.99992 6.83325C6.63159 6.83325 6.33325 7.13159 6.33325 7.49992C6.33325 7.86825 6.63159 8.16659 6.99992 8.16659C7.36825 8.16659 7.66659 7.86825 7.66659 7.49992C7.66659 7.13159 7.36825 6.83325 6.99992 6.83325ZM9.33325 6.83325C8.96492 6.83325 8.66659 7.13159 8.66659 7.49992C8.66659 7.86825 8.96492 8.16659 9.33325 8.16659C9.70159 8.16659 9.99992 7.86825 9.99992 7.49992C9.99992 7.13159 9.70159 6.83325 9.33325 6.83325ZM4.66659 6.83325C4.29825 6.83325 3.99992 7.13159 3.99992 7.49992C3.99992 7.86825 4.29825 8.16659 4.66659 8.16659C5.03492 8.16659 5.33325 7.86825 5.33325 7.49992C5.33325 7.13159 5.03492 6.83325 4.66659 6.83325Z" fill="#583DFF"/>
</svg>
