<svg width="12" height="12" viewBox="0 0 12 12" fill="none" xmlns="http://www.w3.org/2000/svg">
<path d="M6.34392 0.598145C3.36067 0.598145 0.942139 3.01667 0.942139 5.99993C0.942139 8.98319 3.36067 11.4017 6.34392 11.4017C9.32718 11.4017 11.7457 8.98319 11.7457 5.99993C11.7457 3.01667 9.32718 0.598145 6.34392 0.598145ZM6.34392 1.58029C8.7848 1.58029 10.7636 3.55906 10.7636 5.99993C10.7636 8.4408 8.7848 10.4196 6.34392 10.4196C3.90305 10.4196 1.92428 8.4408 1.92428 5.99993C1.92428 3.55906 3.90305 1.58029 6.34392 1.58029ZM6.34392 2.07136C6.07285 2.07136 5.85285 2.29111 5.85285 2.56243V5.50886H3.3975C3.12618 5.50886 2.90642 5.72886 2.90642 5.99993C2.90642 6.271 3.12618 6.491 3.3975 6.491H6.34392C6.615 6.491 6.835 6.27125 6.835 5.99993V2.56243C6.835 2.29111 6.615 2.07136 6.34392 2.07136Z" fill="#B2B0BC"/>
</svg>
