<svg width="14" height="15" viewBox="0 0 14 15" fill="none" xmlns="http://www.w3.org/2000/svg">
<path d="M7.00012 0.333252C5.86845 0.333252 4.95743 1.22356 4.86731 2.33325H1.16679C1.10053 2.33231 1.03475 2.34456 0.973268 2.36926C0.911784 2.39397 0.855823 2.43065 0.808638 2.47717C0.761453 2.52369 0.723985 2.57913 0.698411 2.64026C0.672838 2.70139 0.659668 2.76699 0.659668 2.83325C0.659668 2.89951 0.672838 2.96512 0.698411 3.02624C0.723985 3.08737 0.761453 3.14281 0.808638 3.18933C0.855823 3.23585 0.911784 3.27253 0.973268 3.29724C1.03475 3.32195 1.10053 3.33419 1.16679 3.33325H1.72669L2.85429 12.0676C2.97196 12.979 3.75398 13.6666 4.67265 13.6666H6.87773C6.59273 13.3702 6.35033 13.0343 6.15833 12.6666H4.672C4.25433 12.6666 3.89949 12.354 3.84583 11.94L2.73515 3.33325H11.2644L10.8667 6.42049C11.2057 6.48916 11.5278 6.60106 11.8328 6.74406L12.2729 3.33325H12.8335C12.8997 3.33419 12.9655 3.32195 13.027 3.29724C13.0885 3.27253 13.1444 3.23585 13.1916 3.18933C13.2388 3.14281 13.2763 3.08737 13.3018 3.02624C13.3274 2.96512 13.3406 2.89951 13.3406 2.83325C13.3406 2.76699 13.3274 2.70139 13.3018 2.64026C13.2763 2.57913 13.2388 2.52369 13.1916 2.47717C13.1444 2.43065 13.0885 2.39397 13.027 2.36926C12.9655 2.34456 12.8997 2.33231 12.8335 2.33325H9.13294C9.04281 1.22356 8.13179 0.333252 7.00012 0.333252ZM7.00012 1.33325C7.5908 1.33325 8.05077 1.7676 8.13359 2.33325H5.86666C5.94947 1.7676 6.40944 1.33325 7.00012 1.33325ZM10.0001 6.99992C7.97512 6.99992 6.33346 8.64158 6.33346 10.6666C6.33346 12.6916 7.97512 14.3333 10.0001 14.3333C12.0251 14.3333 13.6668 12.6916 13.6668 10.6666C13.6668 8.64158 12.0251 6.99992 10.0001 6.99992ZM11.6668 8.66658C11.7046 8.66658 11.7421 8.67527 11.7781 8.68807C11.7909 8.69263 11.8029 8.69947 11.8152 8.70565C11.8462 8.72125 11.8767 8.73837 11.9025 8.76424C11.9299 8.79164 11.9484 8.82431 11.9643 8.85734C11.9689 8.86691 11.9744 8.87611 11.978 8.88599C12.005 8.95973 12.0055 9.04013 11.9786 9.11385C11.9747 9.12472 11.9681 9.1346 11.963 9.1451C11.9472 9.17728 11.9293 9.20886 11.9025 9.23559L10.4715 10.6666C11.2031 11.3979 11.8731 12.0682 11.9025 12.0976C11.9287 12.1238 11.946 12.1553 11.9617 12.1868C11.9674 12.1983 11.9744 12.2093 11.9786 12.2213C11.9917 12.2577 12.0001 12.2951 12.0001 12.3333C12.0001 12.371 11.9914 12.4086 11.9786 12.4446C11.9741 12.4574 11.9672 12.4694 11.9611 12.4817C11.9455 12.5126 11.9283 12.5431 11.9025 12.5689C11.8751 12.5963 11.8424 12.6149 11.8094 12.6308C11.7998 12.6354 11.7906 12.6408 11.7807 12.6444C11.707 12.6715 11.6266 12.6719 11.5529 12.6451C11.542 12.6411 11.5321 12.6346 11.5216 12.6295C11.4894 12.6137 11.4578 12.5957 11.4311 12.5689L10.0001 11.1379L8.56913 12.5689C8.54288 12.5952 8.51142 12.6125 8.47994 12.6282C8.46841 12.6339 8.45742 12.6408 8.44544 12.6451C8.40904 12.6582 8.37165 12.6666 8.33346 12.6666C8.29566 12.6666 8.25815 12.6579 8.22213 12.6451C8.20932 12.6405 8.1973 12.6337 8.18502 12.6275C8.15409 12.6119 8.12358 12.5948 8.09778 12.5689C8.07038 12.5415 8.05181 12.5089 8.03593 12.4758C8.03135 12.4663 8.02587 12.4571 8.02226 12.4472C7.99526 12.3734 7.99477 12.293 8.02161 12.2193C8.02557 12.2084 8.0321 12.1986 8.03723 12.1881C8.05301 12.1559 8.07097 12.1243 8.09778 12.0976C8.12711 12.0682 8.7971 11.3979 9.52877 10.6666L8.09778 9.23559C8.07153 9.20934 8.05421 9.17788 8.03853 9.1464C8.03283 9.13487 8.02589 9.12388 8.02161 9.1119C8.00854 9.0755 8.00012 9.03811 8.00012 8.99992C8.00012 8.96212 8.00881 8.92461 8.02161 8.88859C8.02616 8.87578 8.03301 8.86376 8.03919 8.85148C8.05479 8.82056 8.07191 8.79005 8.09778 8.76424C8.12899 8.73303 8.16566 8.71019 8.2039 8.69393C8.20983 8.69141 8.21609 8.69022 8.22213 8.68807C8.2539 8.67673 8.28649 8.67058 8.31978 8.66919C8.32717 8.66888 8.33453 8.6677 8.34192 8.66789C8.3797 8.66885 8.41751 8.67561 8.45325 8.68937C8.45937 8.69173 8.46483 8.69575 8.47083 8.69849C8.50615 8.71459 8.54009 8.73512 8.56913 8.76424C8.59847 8.79357 9.26879 9.46356 10.0001 10.1952L11.4311 8.76424C11.4574 8.73799 11.4888 8.72067 11.5203 8.705C11.5318 8.69929 11.5428 8.69236 11.5548 8.68807C11.5912 8.675 11.6286 8.66658 11.6668 8.66658Z" fill="#F61919"/>
</svg>
