<svg width="14" height="12" viewBox="0 0 14 12" fill="none" xmlns="http://www.w3.org/2000/svg">
<g clip-path="url(#clip0_3341_20589)">
<path d="M2.66537 0.578281C2.35662 0.573086 2.04561 0.698042 1.83202 0.95461L1.23484 1.67076C0.817872 2.17121 0.814366 2.90414 1.22601 3.40871L2.42626 4.88046V9.78452C2.42626 10.6951 3.17413 11.443 4.0847 11.443C4.08509 11.443 4.08549 11.443 4.08588 11.443L10.4169 11.4277C11.3275 11.4277 12.0754 10.6798 12.0754 9.76921V4.88046L13.2756 3.40871C13.6873 2.90414 13.6838 2.17121 13.2668 1.67076L12.6696 0.95461C12.456 0.698042 12.145 0.573086 11.8363 0.578281C11.5275 0.583476 11.2208 0.718871 11.0159 0.98229L10.1619 2.08007H4.38623C4.37129 2.08011 4.35635 2.0809 4.34148 2.08242L3.48575 0.98229C3.28081 0.718871 2.97412 0.583476 2.66537 0.578281ZM2.65005 1.47111C2.69389 1.47181 2.7375 1.49411 2.77137 1.53766L3.66891 2.69138L2.73957 3.81743C2.7373 3.82017 2.73593 3.8235 2.73368 3.82626L1.92684 2.83744C1.78547 2.66415 1.7865 2.42165 1.92978 2.24968L2.52697 1.53353C2.56214 1.49128 2.60621 1.4704 2.65005 1.47111ZM11.8516 1.47111C11.8954 1.4704 11.9395 1.49128 11.9747 1.53353L12.5719 2.24968C12.7151 2.42165 12.7162 2.66415 12.5748 2.83744L11.775 3.81802H11.7744L11.7738 3.81919C11.769 3.81323 11.7658 3.80624 11.7609 3.80035L11.7744 3.81802L10.8904 2.61718L11.7303 1.53766C11.7641 1.49411 11.8077 1.47181 11.8516 1.47111ZM4.59943 2.98467H10.0377L10.9264 4.19081H3.60354L4.59943 2.98467ZM3.33086 5.09542H11.1708V9.76921C11.1708 10.1908 10.8385 10.523 10.4169 10.523C10.4165 10.523 10.4162 10.523 10.4158 10.523L4.0847 10.5384C3.66309 10.5384 3.33086 10.2061 3.33086 9.78452V5.09542ZM5.89391 6.30156C5.83397 6.30071 5.77447 6.31178 5.71885 6.33413C5.66323 6.35648 5.61261 6.38966 5.56992 6.43175C5.52724 6.47383 5.49335 6.52398 5.47021 6.57928C5.44708 6.63457 5.43517 6.69392 5.43517 6.75386C5.43517 6.8138 5.44708 6.87315 5.47021 6.92844C5.49335 6.98374 5.52724 7.03389 5.56992 7.07597C5.61261 7.11806 5.66323 7.15124 5.71885 7.17359C5.77447 7.19594 5.83397 7.20701 5.89391 7.20616H8.60773C8.66766 7.20701 8.72717 7.19594 8.78279 7.17359C8.83841 7.15124 8.88903 7.11806 8.93171 7.07597C8.97439 7.03389 9.00829 6.98374 9.03142 6.92844C9.05456 6.87315 9.06647 6.8138 9.06647 6.75386C9.06647 6.69392 9.05456 6.63457 9.03142 6.57928C9.00829 6.52398 8.97439 6.47383 8.93171 6.43175C8.88903 6.38966 8.83841 6.35648 8.78279 6.33413C8.72717 6.31178 8.66766 6.30071 8.60773 6.30156H5.89391Z" fill="#B2B0BC"/>
</g>
<defs>
<clipPath id="clip0_3341_20589">
<rect width="12.7368" height="11" fill="white" transform="translate(0.882324 0.5)"/>
</clipPath>
</defs>
</svg>
