<svg width="13" height="12" viewBox="0 0 13 12" fill="none" xmlns="http://www.w3.org/2000/svg">
<g clip-path="url(#clip0_3147_71811)">
<path d="M6.08347 0.041748C4.5901 0.041748 3.37514 1.31737 3.37514 2.8855C3.37514 4.45362 4.5901 5.72925 6.08347 5.72925C7.57685 5.72925 8.79181 4.45362 8.79181 2.8855C8.79181 1.31737 7.57685 0.041748 6.08347 0.041748ZM6.01048 6.58036C3.63933 6.58036 1.57331 7.85644 0.868875 9.75525C0.729667 10.1304 0.783347 10.551 1.01328 10.8814C1.2462 11.2165 1.62845 11.4167 2.03579 11.4167H3.13023C3.11506 11.3274 3.10431 11.2372 3.10431 11.1459C3.10431 9.93096 4.41297 8.97925 6.08347 8.97925C7.75397 8.97925 9.06264 9.93096 9.06264 11.1459C9.06264 11.2372 9.05189 11.3274 9.03672 11.4167H9.98517C10.3922 11.4167 10.7745 11.217 11.0077 10.882C11.2373 10.5515 11.2918 10.1301 11.1526 9.75525C10.4482 7.85617 8.38162 6.58063 6.01048 6.58036ZM6.08347 10.0626C4.96629 10.0626 4.18764 10.6335 4.18764 11.1459C4.18764 11.2366 4.21329 11.3271 4.25852 11.4167H7.90843C7.95365 11.3271 7.97931 11.2366 7.97931 11.1459C7.97931 10.6335 7.20066 10.0626 6.08347 10.0626Z" fill="black"/>
</g>
<defs>
<clipPath id="clip0_3147_71811">
<rect width="12" height="12" fill="white" transform="translate(0.083252)"/>
</clipPath>
</defs>
</svg>
