<svg width="17" height="16" viewBox="0 0 17 16" fill="none" xmlns="http://www.w3.org/2000/svg">
<rect width="17" height="16" rx="3" fill="#66666B"/>
<g clip-path="url(#clip0_3341_20582)">
<path d="M11.9075 6.53235C11.9037 6.40606 11.851 6.28619 11.7603 6.19815L8.84367 3.28148C8.75251 3.19035 8.62888 3.13916 8.49998 3.13916C8.37108 3.13916 8.24745 3.19035 8.15628 3.28148L5.23962 6.19815C5.19296 6.24294 5.15571 6.29659 5.13005 6.35596C5.10439 6.41533 5.09084 6.47922 5.09018 6.54389C5.08952 6.60857 5.10178 6.67272 5.12622 6.7326C5.15067 6.79248 5.18681 6.84687 5.23255 6.89261C5.27828 6.93834 5.33268 6.97449 5.39256 6.99893C5.45244 7.02338 5.51659 7.03563 5.58126 7.03498C5.64593 7.03432 5.70983 7.02076 5.76919 6.9951C5.82856 6.96944 5.88221 6.93219 5.92701 6.88554L8.49998 4.31257L11.0729 6.88554C11.1412 6.95578 11.2291 7.00376 11.3252 7.02319C11.4212 7.04261 11.5208 7.03258 11.611 6.9944C11.7012 6.95622 11.7778 6.89167 11.8307 6.80922C11.8836 6.72678 11.9104 6.63027 11.9075 6.53235ZM11.9075 9.45329C11.9074 9.35663 11.8785 9.26219 11.8244 9.18205C11.7704 9.10191 11.6936 9.0397 11.6041 9.00337C11.5145 8.96704 11.4161 8.95824 11.3215 8.97809C11.2269 8.99794 11.1404 9.04554 11.0729 9.11481L8.49998 11.6878L5.92701 9.11481C5.88221 9.06816 5.82856 9.03091 5.76919 9.00525C5.70983 8.97959 5.64593 8.96604 5.58126 8.96538C5.51659 8.96472 5.45244 8.97697 5.39256 9.00142C5.33268 9.02587 5.27828 9.06201 5.23255 9.10775C5.18681 9.15348 5.15067 9.20788 5.12622 9.26776C5.10177 9.32763 5.08952 9.39179 5.09018 9.45646C5.09084 9.52113 5.10439 9.58503 5.13005 9.64439C5.15571 9.70376 5.19296 9.75741 5.23962 9.80221L8.15628 12.7189C8.24745 12.81 8.37108 12.8612 8.49998 12.8612C8.62888 12.8612 8.75251 12.81 8.84367 12.7189L11.7603 9.80221C11.807 9.75685 11.844 9.7026 11.8693 9.64266C11.8946 9.58273 11.9076 9.51833 11.9075 9.45329Z" fill="white"/>
</g>
<defs>
<clipPath id="clip0_3341_20582">
<rect width="9.8" height="7" fill="white" transform="translate(12 3.1001) rotate(90)"/>
</clipPath>
</defs>
</svg>
