<svg width="13" height="12" viewBox="0 0 13 12" fill="none" xmlns="http://www.w3.org/2000/svg">
<path d="M11.776 3.11531V2.68262C11.776 1.64877 10.9348 0.807617 9.90097 0.807617H3.26636C2.23251 0.807617 1.39136 1.64877 1.39136 2.68262V3.11531H11.776ZM1.39136 3.98069V9.31723C1.39136 10.3511 2.23251 11.1922 3.26636 11.1922H9.90097C10.9348 11.1922 11.776 10.3511 11.776 9.31723V3.98069H1.39136ZM9.46828 8.30762C9.46828 8.62637 9.21011 8.88454 8.89136 8.88454H7.73751C7.41876 8.88454 7.16059 8.62637 7.16059 8.30762V7.15377C7.16059 6.83502 7.41876 6.57685 7.73751 6.57685H8.89136C9.21011 6.57685 9.46828 6.83502 9.46828 7.15377V8.30762Z" fill="black"/>
</svg>
