<svg width="14" height="15" viewBox="0 0 14 15" fill="none" xmlns="http://www.w3.org/2000/svg">
<path d="M6.8588 0.855413C6.77149 0.852985 6.6825 0.860746 6.59318 0.879502L1.8575 1.8769C1.1667 2.02272 0.666748 2.63785 0.666748 3.34435V11.6555C0.666748 12.3619 1.16621 12.9776 1.8575 13.123L6.59318 14.1197C7.30785 14.2704 8.00008 13.7086 8.00008 12.9785V2.02143C8.00008 1.38254 7.47003 0.872413 6.8588 0.855413ZM9.00008 2.16661V2.66661V3.16661V12.1666V12.6666V13.1666H11.8334C12.6559 13.1666 13.3334 12.4891 13.3334 11.6666V3.66661C13.3334 2.84411 12.6559 2.16661 11.8334 2.16661H9.00008ZM10.5001 4.49994H11.5001C11.7761 4.49994 12.0001 4.72361 12.0001 4.99994C12.0001 5.27628 11.7761 5.49994 11.5001 5.49994H10.5001C10.2241 5.49994 10.0001 5.27628 10.0001 4.99994C10.0001 4.72361 10.2241 4.49994 10.5001 4.49994ZM3.17912 5.16596C3.34009 5.17019 3.49617 5.2506 3.58992 5.39643L4.33341 6.57026L5.0769 5.39643C5.2269 5.1631 5.53693 5.09677 5.77026 5.24343C6.00026 5.39343 6.06992 5.70346 5.92326 5.93679L4.92651 7.49995L5.92326 9.0631C6.06992 9.29643 6.00026 9.60646 5.77026 9.75646C5.68693 9.80646 5.59341 9.83328 5.50008 9.83328C5.33675 9.83328 5.17357 9.75013 5.0769 9.60346L4.33341 8.42963L3.58992 9.60346C3.49326 9.75013 3.33008 9.83328 3.16675 9.83328C3.07341 9.83328 2.9799 9.80646 2.89657 9.75646C2.66657 9.60646 2.5969 9.29643 2.74357 9.0631L3.74032 7.49995L2.74357 5.93679C2.5969 5.70346 2.66657 5.39343 2.89657 5.24343C2.98407 5.18843 3.08254 5.16342 3.17912 5.16596ZM10.5001 7.16661H11.5001C11.7761 7.16661 12.0001 7.39028 12.0001 7.66661C12.0001 7.94295 11.7761 8.16661 11.5001 8.16661H10.5001C10.2241 8.16661 10.0001 7.94295 10.0001 7.66661C10.0001 7.39028 10.2241 7.16661 10.5001 7.16661ZM10.5001 9.83328H11.5001C11.7761 9.83328 12.0001 10.0569 12.0001 10.3333C12.0001 10.6096 11.7761 10.8333 11.5001 10.8333H10.5001C10.2241 10.8333 10.0001 10.6096 10.0001 10.3333C10.0001 10.0569 10.2241 9.83328 10.5001 9.83328Z" fill="#583DFF"/>
</svg>
