<svg width="15" height="16" viewBox="0 0 15 16" fill="none" xmlns="http://www.w3.org/2000/svg">
<path d="M1.86824 5.31531C1.86827 5.31528 1.8683 5.31526 1.86833 5.31523L7.61552 0.78745L13.3627 5.31523C13.3627 5.31526 13.3628 5.31528 13.3628 5.31531C13.9226 5.75654 14.25 6.43076 14.25 7.14279V14.9744C14.25 15.1196 14.1196 15.25 13.9744 15.25H9.87189C9.72669 15.25 9.59627 15.1196 9.59627 14.9744V10.8719C9.59627 10.6332 9.51023 10.3844 9.31943 10.1936C9.12863 10.0028 8.87987 9.91677 8.64115 9.91677H6.5899C6.35118 9.91677 6.10242 10.0028 5.91162 10.1936C5.72082 10.3844 5.63478 10.6332 5.63478 10.8719V14.9744C5.63478 15.1196 5.50436 15.25 5.35916 15.25H1.25667C1.11147 15.25 0.981049 15.1196 0.981049 14.9744V7.14279C0.981049 6.43076 1.30842 5.75654 1.86824 5.31531Z" fill="white" stroke="black" stroke-width="1.5"/>
</svg>
