<svg width="15" height="10" viewBox="0 0 15 10" fill="none" xmlns="http://www.w3.org/2000/svg">
<path d="M2.86011 0.360107C1.67229 1.54745 0.9375 3.18781 0.9375 5C0.9375 6.81219 1.67229 8.45255 2.86011 9.63989L3.52478 8.97522C2.50619 7.95663 1.875 6.55062 1.875 5C1.875 3.44937 2.50619 2.04337 3.52478 1.02478L2.86011 0.360107ZM12.1399 0.360107L11.4752 1.02478C12.4938 2.04337 13.125 3.44937 13.125 5C13.125 6.55062 12.4938 7.95663 11.4752 8.97522L12.1399 9.63989C13.3277 8.45255 14.0625 6.81219 14.0625 5C14.0625 3.18781 13.3277 1.54745 12.1399 0.360107ZM4.51721 2.01721C3.75362 2.78081 3.28125 3.83516 3.28125 5C3.28125 6.16484 3.75362 7.21919 4.51721 7.98279L5.18097 7.31903C4.58659 6.72512 4.21875 5.90469 4.21875 5C4.21875 4.09531 4.58659 3.27488 5.18097 2.68097L4.51721 2.01721ZM10.4828 2.01721L9.81903 2.68097C10.4134 3.27488 10.7812 4.09531 10.7812 5C10.7812 5.90469 10.4134 6.72512 9.81903 7.31903L10.4828 7.98279C11.2464 7.21919 11.7188 6.16484 11.7188 5C11.7188 3.83516 11.2464 2.78081 10.4828 2.01721ZM7.5 3.125C7.00272 3.125 6.52581 3.32254 6.17417 3.67417C5.82254 4.02581 5.625 4.50272 5.625 5C5.625 5.49728 5.82254 5.97419 6.17417 6.32582C6.52581 6.67746 7.00272 6.875 7.5 6.875C7.99728 6.875 8.47419 6.67746 8.82582 6.32582C9.17746 5.97419 9.375 5.49728 9.375 5C9.375 4.50272 9.17746 4.02581 8.82582 3.67417C8.47419 3.32254 7.99728 3.125 7.5 3.125Z" fill="#0060FF"/>
</svg>
