<svg width="15" height="14" viewBox="0 0 15 14" fill="none" xmlns="http://www.w3.org/2000/svg">
<path fill-rule="evenodd" clip-rule="evenodd" d="M3.42584 4.37161C3.48383 4.19542 3.54999 4.02145 3.62433 3.84897C3.95292 3.09218 4.40195 2.43352 4.96843 1.87224C5.53194 1.31394 6.18912 0.87011 6.9422 0.543751C7.70569 0.212931 8.51974 0.0449219 9.38433 0.0449219C10.1731 0.0449219 10.9046 0.183923 11.5796 0.454526C12.2703 0.730334 12.865 1.11467 13.3675 1.60087C13.8753 2.09152 14.276 2.67587 14.5667 3.3561C14.8529 4.02814 15.0001 4.75447 15.0001 5.53654C15.0001 6.39221 14.8328 7.20175 14.5012 7.96672C14.4596 8.06188 14.3719 8.24849 14.3674 8.25741L14.363 8.26707C13.1482 10.7553 11.0072 12.709 8.38963 13.6806L7.64919 13.9549L7.0329 13.4613C6.01739 12.6473 5.15131 11.6541 4.48298 10.5293H6.14898C6.6493 11.2207 7.24031 11.8407 7.90492 12.3737C10.1857 11.527 12.0517 9.82382 13.1103 7.65527C13.1103 7.65527 13.1861 7.49466 13.2218 7.41214C13.4776 6.82187 13.6062 6.19669 13.6062 5.53654C13.6062 4.95073 13.4984 4.40577 13.2843 3.90248C13.0694 3.39919 12.7743 2.96576 12.3989 2.60223C12.0234 2.23944 11.5781 1.95475 11.0622 1.74882C10.5463 1.54215 9.98724 1.43883 9.38433 1.43883C8.716 1.43883 8.08706 1.5667 7.49679 1.82244C6.90651 2.07817 6.39058 2.42529 5.94899 2.86242C5.51558 3.29212 5.17213 3.79472 4.91714 4.37161H3.42584ZM1.20081 8.03889H4.86138C5.00858 8.47081 5.1855 8.88934 5.39068 9.29079H1.73011C1.52492 8.88934 1.348 8.47081 1.20081 8.03889ZM0.904927 5.61088H4.56476C4.53502 5.82945 4.5194 6.05242 4.5194 6.27916C4.5194 6.45683 4.52982 6.6301 4.54915 6.80035H0.888575C0.869246 6.6301 0.874447 5.82945 0.904927 5.61088Z" fill="#583DFF"/>
<path d="M11.1512 5.81016C11.1512 6.09755 11.0957 6.36974 10.9843 6.62654C10.8729 6.88352 10.7211 7.10707 10.5289 7.29754C10.3366 7.48802 10.1122 7.63888 9.85522 7.7503C9.59843 7.86155 9.32447 7.91725 9.03336 7.91725C8.77125 7.91725 8.52772 7.87233 8.30329 7.78249C8.07868 7.69282 7.88466 7.56884 7.72125 7.41073C7.55765 7.25262 7.42925 7.06409 7.33587 6.84496C7.24249 6.62565 7.1958 6.38866 7.1958 6.13346C7.1958 5.84606 7.25151 5.57388 7.36275 5.31708C7.47418 5.0601 7.62592 4.83656 7.81816 4.64608C8.01041 4.45578 8.23502 4.30474 8.49182 4.1935C8.7488 4.08208 9.02257 4.02637 9.31368 4.02637C9.57596 4.02637 9.81932 4.07129 10.0439 4.16113C10.2684 4.25098 10.4624 4.37495 10.626 4.53289C10.7894 4.691 10.9178 4.87971 11.0112 5.09884C11.1046 5.31796 11.1512 5.55513 11.1512 5.81016Z" fill="#583DFF"/>
</svg>
