<svg viewBox="0 0 191 57" fill="none" xmlns="http://www.w3.org/2000/svg">
<path d="M57.3334 46.7256H54.6669V45.1589H59.3293V53.8828H57.3334V46.7256ZM64.1151 45.1589C64.9628 45.1589 65.6066 45.3664 66.0466 45.7813C66.4901 46.1962 66.7119 46.8043 66.7119 47.6055V51.6509H64.6838L64.6731 47.4231C64.6731 47.2013 64.6248 47.0296 64.5282 46.908C64.4316 46.7864 64.2957 46.7256 64.1205 46.7256H63.321C63.2745 47.119 63.2513 47.4982 63.2513 47.863V49.5638C63.2513 50.0216 63.1654 50.4151 62.9938 50.7442C62.8256 51.0732 62.5824 51.3254 62.2641 51.5007C61.9457 51.6759 61.5666 51.7635 61.1266 51.7635C60.8369 51.7635 60.5329 51.7367 60.2145 51.6831V50.1325L60.5579 50.1379C60.7833 50.1379 60.9585 50.0771 61.0837 49.9555C61.2125 49.8303 61.2769 49.6461 61.2769 49.4028V48.0562C61.2769 47.8594 61.3019 47.6359 61.352 47.3855C61.4056 47.1351 61.4843 46.9151 61.5881 46.7256H60.676V45.1589H64.1151ZM68.1927 46.7256H67.7152V45.1589H70.2261V51.6509H68.1927V46.7256ZM71.884 45.1589H74.8993C75.7434 45.1589 76.3854 45.3664 76.8254 45.7813C77.2653 46.1962 77.4889 46.8043 77.496 47.6055V51.6509H75.468L75.4572 47.4231C75.4572 47.2013 75.4072 47.0296 75.307 46.908C75.2069 46.7864 75.0692 46.7256 74.8939 46.7256H73.9067L73.9121 51.6509H71.8786L71.884 45.1589ZM79.3632 46.7256H78.4296V45.1589H81.3912V48.9039H79.3632V46.7256ZM87.969 46.4627L85.9302 51.6509H83.7895L85.8015 46.7256H82.4804V43.4098H84.5138V45.1589H87.969V46.4627ZM91.1238 49.8857C91.41 50.0073 91.7229 50.1075 92.0627 50.1862C92.4061 50.2613 92.7173 50.2988 92.9963 50.2988C93.7653 50.2988 94.368 50.1361 94.8044 49.8106C95.2407 49.4851 95.4589 48.9861 95.4589 48.3137V45.1589H97.4226V48.5498C97.4226 49.2687 97.2295 49.8786 96.8432 50.3793C96.4605 50.8765 95.94 51.2503 95.2819 51.5007C94.6273 51.7475 93.8923 51.8709 93.0768 51.8709C92.4401 51.8709 91.7802 51.7957 91.097 51.6455C90.4174 51.4917 89.7735 51.2682 89.1655 50.9749V45.1589H91.1238V49.8857ZM92.1539 49.4511C92.1897 49.3188 92.2183 49.1238 92.2398 48.8663C92.2648 48.6052 92.2773 48.3387 92.2773 48.0669V45.1589H94.241V47.6216C94.241 47.9828 94.1981 48.3351 94.1123 48.6785C94.03 49.0183 93.9245 49.2723 93.7957 49.4404L92.1539 49.4511ZM104.043 46.4627L102.005 51.6509H99.8638L101.876 46.7256H98.5547V43.4098H100.588V45.1589H104.043V46.4627ZM108.024 45.2179H113.513V51.6509H108.024V45.2179ZM111.828 50.3364V46.5271H109.709V50.3364H111.828ZM115.675 46.5271H114.667V45.2179H117.36V48.8878H115.675V46.5271ZM119.05 45.2179H121.851C122.691 45.2179 123.326 45.4236 123.755 45.8349C124.188 46.2427 124.408 46.849 124.415 47.6538V51.6509H122.736L122.725 47.5143C122.725 46.8561 122.435 46.5271 121.856 46.5271H120.729V51.6509H119.045L119.05 45.2179ZM126.416 46.5271H125.408V45.2179H128.101V48.8878H126.416V46.5271ZM134.518 46.2964L132.388 51.6509H130.607L132.71 46.5271H129.26V43.4098H130.945V45.2179H134.518V46.2964ZM137.399 50.1003C137.71 50.2327 138.041 50.3382 138.392 50.4169C138.746 50.4956 139.073 50.5349 139.374 50.5349C140.15 50.5349 140.767 50.3704 141.225 50.0413C141.682 49.7087 141.911 49.2079 141.911 48.539V45.2179H143.537V48.7268C143.537 49.4028 143.355 49.9751 142.99 50.4437C142.629 50.9123 142.138 51.2646 141.52 51.5007C140.904 51.7331 140.212 51.8494 139.443 51.8494C138.846 51.8494 138.227 51.7779 137.587 51.6348C136.95 51.4917 136.346 51.2825 135.773 51.007V45.2179H137.399V50.1003ZM138.596 49.6013C138.664 49.469 138.715 49.2776 138.751 49.0273C138.791 48.7733 138.81 48.4979 138.81 48.201V45.2179H140.441V47.8469C140.441 48.2117 140.398 48.5533 140.313 48.8717C140.23 49.1864 140.114 49.4315 139.964 49.6067L138.596 49.6013ZM150.217 47.4016C150.217 47.1154 150.136 46.899 149.975 46.7524C149.814 46.6022 149.582 46.5271 149.278 46.5271H147.341V45.2179H149.401C149.92 45.2179 150.367 45.3091 150.743 45.4916C151.118 45.6704 151.404 45.9297 151.601 46.2695C151.801 46.6093 151.901 47.0153 151.901 47.4874V51.6509H150.217V47.4016ZM153.087 51.7206C152.958 51.7206 152.822 51.7117 152.679 51.6938V50.1754C152.869 50.204 153.037 50.2184 153.184 50.2184C153.981 50.2076 154.514 49.8499 154.783 49.1453V46.5271H153.377V45.2179H156.44V48.4746C156.44 48.8252 156.476 49.1703 156.548 49.5101L156.977 51.6509H155.426L155.045 50.0252H155.013C154.96 50.3435 154.842 50.6315 154.659 50.889C154.48 51.1465 154.253 51.3504 153.978 51.5007C153.706 51.6473 153.409 51.7206 153.087 51.7206ZM162.541 48.9414L164.419 51.6509H162.541L160.148 48.1957C160.026 48.353 159.965 48.5533 159.965 48.7966V51.6509H158.34V49.5209C158.34 48.9271 158.431 48.4514 158.613 48.0937C158.796 47.736 159.091 47.4588 159.499 47.2621L158.077 45.2179H159.96L161.511 47.4552L162.594 45.2179H164.483L162.541 48.9414ZM166.125 48.0293C166.161 47.7396 166.234 47.4642 166.345 47.2031C166.456 46.942 166.586 46.7363 166.736 46.5861C166.769 46.5539 166.794 46.5342 166.812 46.5271L166.806 46.5002C166.67 46.5217 166.504 46.561 166.307 46.6183C166.11 46.6719 165.942 46.7274 165.803 46.7846L165.443 45.5613C165.862 45.4111 166.348 45.2895 166.903 45.1965C167.457 45.0999 167.981 45.0516 168.475 45.0516C169.451 45.0516 170.193 45.302 170.701 45.8027C171.213 46.3035 171.47 47.0385 171.474 48.0079V51.6509H168.657V50.3418H169.789L169.784 47.7825C169.784 47.3533 169.696 47.0207 169.521 46.7846C169.349 46.5449 169.106 46.4251 168.791 46.4251C168.491 46.4251 168.255 46.5432 168.083 46.7792C167.911 47.0153 167.802 47.3605 167.756 47.8147L167.375 51.6509H165.712L166.125 48.0293Z" fill="#583DFF"/>
<path d="M152.232 20.0302C152.489 18.8214 152.884 17.6435 153.382 16.4983C154.464 14.0034 155.924 11.8331 157.795 9.98381C159.667 8.13627 161.847 6.6699 164.337 5.58988C166.827 4.50814 169.488 3.96729 172.321 3.96729C174.863 3.96729 177.232 4.40339 179.413 5.27565C181.593 6.14791 183.465 7.35156 185.062 8.88488C186.641 10.4199 187.895 12.252 188.805 14.3794C189.698 16.5068 190.161 18.8094 190.161 21.2853C190.161 24.0755 189.612 26.7181 188.53 29.2112C187.449 31.7061 185.989 33.8764 184.117 35.7257C182.246 37.5749 180.065 39.0396 177.576 40.1213C175.086 41.2014 172.424 41.7422 169.591 41.7422C167.05 41.7422 164.681 41.3061 162.5 40.4338C160.319 39.5633 158.448 38.3596 156.851 36.8246C155.271 35.2895 154.018 33.4592 153.108 31.3318C152.919 30.8836 152.747 30.4286 152.61 29.9667C152.404 30.3943 152.18 30.8132 151.957 31.227C150.738 33.4231 149.244 35.3067 147.51 36.8761C145.759 38.4472 143.784 39.6766 141.569 40.566C139.354 41.4554 137.019 41.9002 134.581 41.9002C132.074 41.9002 129.739 41.4726 127.592 40.6175C125.446 39.7625 123.609 38.5949 122.081 37.1131C120.553 35.6295 119.333 33.8507 118.441 31.7748C118.252 31.3232 118.08 30.863 117.925 30.3943C116.912 32.3981 115.625 34.1752 114.062 35.7257C112.191 37.5749 110.01 39.0396 107.52 40.1213C105.031 41.2014 102.369 41.7422 99.536 41.7422C96.9948 41.7422 94.6253 41.3061 92.4447 40.4338C90.264 39.5633 88.3924 38.3596 86.7956 36.8246C85.2159 35.2895 83.9625 33.4592 83.0524 31.3318C82.2283 29.3743 81.7819 27.2692 81.7132 25.0165C80.6486 25.8389 79.4467 26.5137 78.1074 27.0409C76.4075 27.7037 74.6046 28.035 72.6987 28.035H61.7096L58.928 41.167H50.1367L57.9322 4.54247H74.9994C78.4164 4.54247 81.1981 5.55384 83.3444 7.57823C84.6321 8.80076 85.5421 10.2362 86.0573 11.8811C86.5724 11.2149 87.139 10.5831 87.7399 9.98381C89.6115 8.13627 91.7921 6.6699 94.2818 5.58988C96.7715 4.50814 99.4329 3.96729 102.266 3.96729C104.807 3.96729 107.177 4.40339 109.358 5.27565C111.538 6.14791 113.41 7.35156 115.007 8.88488C116.586 10.4199 117.84 12.252 118.75 14.3794C118.956 14.8877 119.145 15.4062 119.316 15.9333C120.381 13.8265 121.737 11.9567 123.369 10.3238C125.257 8.42301 127.489 6.91543 130.031 5.79936C132.572 4.68328 135.268 4.12524 138.084 4.12524C141.26 4.12524 144.196 4.82235 146.909 6.21659C149.605 7.61254 151.7 9.49616 153.159 11.8674L146.257 17.6229C145.347 15.9488 144.11 14.6576 142.531 13.751C140.968 12.8444 139.234 12.3911 137.362 12.3911C135.817 12.3911 134.375 12.7053 133.018 13.3338C131.662 13.9605 130.477 14.8241 129.481 15.923C128.485 17.0219 127.696 18.3029 127.095 19.7675C126.511 21.2339 126.219 22.8032 126.219 24.4773C126.219 27.1628 127.077 29.3778 128.812 31.1223C130.529 32.8651 132.761 33.7373 135.474 33.7373C137.5 33.7373 139.32 33.1879 140.934 32.089C142.565 30.9901 143.681 29.5529 144.316 27.7723H132.984L134.667 20.0302H152.232ZM181.113 21.8606C181.113 19.1047 180.22 16.8125 178.468 14.9804C176.7 13.15 174.468 12.2348 171.738 12.2348C170.244 12.2348 168.819 12.5388 167.479 13.15C166.14 13.7596 164.972 14.5889 163.994 15.6346C163.015 16.682 162.242 17.9114 161.676 19.3228C161.092 20.7359 160.8 22.2452 160.8 23.8489C160.8 26.6048 161.693 28.8987 163.444 30.7291C165.213 32.5612 167.445 33.4763 170.175 33.4763C171.669 33.4763 173.094 33.1707 174.433 32.5612C175.773 31.9499 176.94 31.1223 177.919 30.0749C178.898 29.0292 179.67 27.7998 180.237 26.3867C180.821 24.9736 181.113 23.466 181.113 21.8606ZM111.057 21.8606C111.057 19.1047 110.165 16.8125 108.413 14.9804C106.645 13.15 104.412 12.2348 101.682 12.2348C100.189 12.2348 98.7634 12.5388 97.4241 13.15C96.0848 13.7596 94.9171 14.5889 93.9384 15.6346C92.9597 16.682 92.187 17.9114 91.6204 19.3228C91.0366 20.7359 90.7447 22.2452 90.7447 23.8489C90.7447 26.6048 91.6377 28.8987 93.3891 30.7291C95.1576 32.5612 97.3896 33.4763 100.12 33.4763C101.614 33.4763 103.039 33.1707 104.378 32.5612C105.717 31.9499 106.885 31.1223 107.864 30.0749C108.842 29.0292 109.615 27.7998 110.182 26.3867C110.765 24.9736 111.057 23.466 111.057 21.8606ZM73.4197 12.2348H65.1094L63.3236 20.6054H72.527C73.9693 20.6054 75.154 20.1779 76.1155 19.3228C77.0771 18.4694 77.5579 17.3963 77.5579 16.105C77.5579 14.9203 77.1801 13.9776 76.4246 13.2805C75.6862 12.5834 74.6732 12.2348 73.4197 12.2348Z" fill="#583DFF"/>
<path fill-rule="evenodd" clip-rule="evenodd" d="M9.48484 15.1542C9.68215 14.5547 9.90727 13.9627 10.1602 13.3758C11.2783 10.8006 12.8063 8.55939 14.7338 6.64951C16.6513 4.74975 18.8875 3.23953 21.45 2.12902C24.048 1.00333 26.818 0.431641 29.7599 0.431641C32.4439 0.431641 34.933 0.904624 37.2299 1.82541C39.5799 2.76391 41.6037 4.07171 43.3137 5.7261C45.0414 7.39566 46.405 9.38404 47.394 11.6987C48.368 13.9855 48.8688 16.4569 48.8688 19.1181C48.8688 22.0297 48.2996 24.7844 47.1714 27.3874C47.0297 27.7112 46.7312 28.3461 46.7161 28.3765L46.7009 28.4094C42.5675 36.8761 35.2821 43.524 26.3752 46.8303L23.8557 47.7636L21.7587 46.084C18.3032 43.314 15.3561 39.9346 13.082 36.1072H18.7509C20.4534 38.4598 22.4644 40.5694 24.7259 42.3831C32.4868 39.5019 38.8363 33.7065 42.4385 26.3276C42.4385 26.3276 42.6965 25.7811 42.8179 25.5003C43.6881 23.4917 44.1257 21.3644 44.1257 19.1181C44.1257 17.1248 43.7589 15.2704 43.0304 13.5578C42.2993 11.8453 41.295 10.3704 40.0176 9.13345C38.7401 7.89899 37.2249 6.93026 35.4693 6.22955C33.7137 5.52631 31.8115 5.17471 29.7599 5.17471C27.4858 5.17471 25.3457 5.60985 23.3371 6.48005C21.3286 7.35024 19.573 8.5314 18.0704 10.0188C16.5956 11.481 15.427 13.1912 14.5593 15.1542H9.48484ZM1.91365 27.6329H14.3696C14.8705 29.1026 15.4725 30.5268 16.1707 31.8928H3.71472C3.01654 30.5268 2.41452 29.1026 1.91365 27.6329ZM0.906858 19.3711H13.3603C13.2591 20.1148 13.2059 20.8735 13.2059 21.645C13.2059 22.2496 13.2414 22.8392 13.3072 23.4185H0.851214C0.785443 22.8392 0.803143 20.1148 0.906858 19.3711Z" fill="#583DFF"/>
<path d="M35.7728 20.0478C35.7728 21.0257 35.5838 21.9519 35.2047 22.8257C34.8255 23.7001 34.3092 24.4608 33.655 25.1089C33.0009 25.7571 32.2372 26.2704 31.3628 26.6496C30.489 27.0281 29.5567 27.2177 28.5662 27.2177C27.6743 27.2177 26.8456 27.0648 26.082 26.7591C25.3177 26.454 24.6575 26.0321 24.1014 25.4941C23.5448 24.9561 23.1078 24.3146 22.7901 23.5689C22.4723 22.8227 22.3135 22.0163 22.3135 21.1479C22.3135 20.17 22.503 19.2438 22.8816 18.37C23.2607 17.4956 23.7771 16.7349 24.4312 16.0867C25.0854 15.4392 25.8497 14.9253 26.7235 14.5467C27.5979 14.1676 28.5295 13.978 29.52 13.978C30.4125 13.978 31.2406 14.1309 32.0049 14.4366C32.7686 14.7423 33.4287 15.1642 33.9854 15.7016C34.5415 16.2396 34.9784 16.8817 35.2961 17.6273C35.6139 18.373 35.7728 19.18 35.7728 20.0478Z" fill="#583DFF"/>
</svg>
