<svg width="7" height="12" viewBox="0 0 7 12" fill="none" xmlns="http://www.w3.org/2000/svg">
<g clip-path="url(#clip0_3147_69069)">
<path d="M1.33334 9.05556C1.00918 9.05556 0.698306 9.18433 0.469095 9.41354C0.239884 9.64275 0.111115 9.95362 0.111115 10.2778C0.111115 10.6019 0.239884 10.9128 0.469095 11.142C0.698306 11.3712 1.00918 11.5 1.33334 11.5C1.65749 11.5 1.96837 11.3712 2.19758 11.142C2.42679 10.9128 2.55556 10.6019 2.55556 10.2778C2.55556 9.95362 2.42679 9.64275 2.19758 9.41354C1.96837 9.18433 1.65749 9.05556 1.33334 9.05556ZM1.33334 4.77778C1.00918 4.77778 0.698306 4.90655 0.469095 5.13576C0.239884 5.36497 0.111115 5.67585 0.111115 6C0.111115 6.32415 0.239884 6.63503 0.469095 6.86424C0.698306 7.09345 1.00918 7.22222 1.33334 7.22222C1.65749 7.22222 1.96837 7.09345 2.19758 6.86424C2.42679 6.63503 2.55556 6.32415 2.55556 6C2.55556 5.67585 2.42679 5.36497 2.19758 5.13576C1.96837 4.90655 1.65749 4.77778 1.33334 4.77778ZM1.33334 0.5C1.00918 0.5 0.698306 0.628769 0.469095 0.857981C0.239884 1.08719 0.111115 1.39807 0.111115 1.72222C0.111115 2.04638 0.239884 2.35725 0.469095 2.58646C0.698306 2.81568 1.00918 2.94444 1.33334 2.94444C1.65749 2.94444 1.96837 2.81568 2.19758 2.58646C2.42679 2.35725 2.55556 2.04638 2.55556 1.72222C2.55556 1.39807 2.42679 1.08719 2.19758 0.857981C1.96837 0.628769 1.65749 0.5 1.33334 0.5Z" fill="#A6A6A6"/>
</g>
<g clip-path="url(#clip1_3147_69069)">
<path d="M5.77778 9.05556C5.45363 9.05556 5.14275 9.18433 4.91354 9.41354C4.68433 9.64275 4.55556 9.95362 4.55556 10.2778C4.55556 10.6019 4.68433 10.9128 4.91354 11.142C5.14275 11.3712 5.45363 11.5 5.77778 11.5C6.10193 11.5 6.41281 11.3712 6.64202 11.142C6.87123 10.9128 7 10.6019 7 10.2778C7 9.95362 6.87123 9.64275 6.64202 9.41354C6.41281 9.18433 6.10193 9.05556 5.77778 9.05556ZM5.77778 4.77778C5.45363 4.77778 5.14275 4.90655 4.91354 5.13576C4.68433 5.36497 4.55556 5.67585 4.55556 6C4.55556 6.32415 4.68433 6.63503 4.91354 6.86424C5.14275 7.09345 5.45363 7.22222 5.77778 7.22222C6.10193 7.22222 6.41281 7.09345 6.64202 6.86424C6.87123 6.63503 7 6.32415 7 6C7 5.67585 6.87123 5.36497 6.64202 5.13576C6.41281 4.90655 6.10193 4.77778 5.77778 4.77778ZM5.77778 0.5C5.45363 0.5 5.14275 0.628769 4.91354 0.857981C4.68433 1.08719 4.55556 1.39807 4.55556 1.72222C4.55556 2.04638 4.68433 2.35725 4.91354 2.58646C5.14275 2.81568 5.45363 2.94444 5.77778 2.94444C6.10193 2.94444 6.41281 2.81568 6.64202 2.58646C6.87123 2.35725 7 2.04638 7 1.72222C7 1.39807 6.87123 1.08719 6.64202 0.857981C6.41281 0.628769 6.10193 0.5 5.77778 0.5Z" fill="#A6A6A6"/>
</g>
<defs>
<clipPath id="clip0_3147_69069">
<rect width="2.44444" height="11" fill="white" transform="translate(0.111115 0.5)"/>
</clipPath>
<clipPath id="clip1_3147_69069">
<rect width="2.44444" height="11" fill="white" transform="translate(4.55556 0.5)"/>
</clipPath>
</defs>
</svg>
