<svg viewBox="0 0 4 12" fill="none" xmlns="http://www.w3.org/2000/svg">
<path d="M2.00005 9.05556C1.6759 9.05556 1.36502 9.18433 1.13581 9.41354C0.906602 9.64275 0.777832 9.95362 0.777832 10.2778C0.777832 10.6019 0.906602 10.9128 1.13581 11.142C1.36502 11.3712 1.6759 11.5 2.00005 11.5C2.32421 11.5 2.63508 11.3712 2.8643 11.142C3.09351 10.9128 3.22228 10.6019 3.22228 10.2778C3.22228 9.95362 3.09351 9.64275 2.8643 9.41354C2.63508 9.18433 2.32421 9.05556 2.00005 9.05556ZM2.00005 4.77778C1.6759 4.77778 1.36502 4.90655 1.13581 5.13576C0.906602 5.36497 0.777832 5.67585 0.777832 6C0.777832 6.32415 0.906602 6.63503 1.13581 6.86424C1.36502 7.09345 1.6759 7.22222 2.00005 7.22222C2.32421 7.22222 2.63508 7.09345 2.8643 6.86424C3.09351 6.63503 3.22228 6.32415 3.22228 6C3.22228 5.67585 3.09351 5.36497 2.8643 5.13576C2.63508 4.90655 2.32421 4.77778 2.00005 4.77778ZM2.00005 0.5C1.6759 0.5 1.36502 0.628769 1.13581 0.857981C0.906602 1.08719 0.777832 1.39807 0.777832 1.72222C0.777832 2.04638 0.906602 2.35725 1.13581 2.58646C1.36502 2.81568 1.6759 2.94444 2.00005 2.94444C2.32421 2.94444 2.63508 2.81568 2.8643 2.58646C3.09351 2.35725 3.22228 2.04638 3.22228 1.72222C3.22228 1.39807 3.09351 1.08719 2.8643 0.857981C2.63508 0.628769 2.32421 0.5 2.00005 0.5Z" fill="black"/>
</svg>
