<svg width="12" height="10" viewBox="0 0 12 10" fill="none" xmlns="http://www.w3.org/2000/svg">
<g clip-path="url(#clip0_3341_20597)">
<path d="M2.44733 0.052002C1.92988 0.052002 1.49624 0.423169 1.41838 0.927857L0.451986 6.69008C0.447298 6.74764 0.442432 6.80496 0.437744 6.86251V8.90617C0.437744 9.48143 0.90415 9.94784 1.47941 9.94784H3.43254C3.79217 9.94784 4.08358 9.65643 4.08358 9.29679V9.16659H8.25024V9.29679C8.25024 9.65643 8.54165 9.94784 8.90128 9.94784H10.8544C11.4297 9.94784 11.8961 9.48143 11.8961 8.90617V6.86251C11.8914 6.80496 11.8865 6.74764 11.8818 6.69008L10.916 0.934977C10.837 0.423258 10.4039 0.052002 9.88649 0.052002H2.44733ZM2.66756 1.09367H3.51798L3.08362 6.302H1.57351L2.41071 1.31136C2.4318 1.18584 2.54048 1.09367 2.66756 1.09367ZM4.5627 1.09367H5.64608V6.302H4.12834L4.5627 1.09367ZM6.68774 1.09367H7.83113L8.21108 6.302H6.68774V1.09367ZM8.87534 1.09367H9.66626C9.79334 1.09367 9.90202 1.18584 9.92311 1.31136L10.7603 6.302H9.25529L8.87534 1.09367ZM1.47941 7.34367H10.8544V8.64575C10.8544 8.7895 10.7377 8.90617 10.594 8.90617H9.55233C9.40858 8.90617 9.29191 8.7895 9.29191 8.64575V8.51554C9.29191 8.29992 9.11691 8.12492 8.90128 8.12492H3.43254C3.21691 8.12492 3.04191 8.29992 3.04191 8.51554V8.64575C3.04191 8.7895 2.92524 8.90617 2.78149 8.90617H1.73983C1.59608 8.90617 1.47941 8.7895 1.47941 8.64575V7.34367Z" fill="#B2B0BC"/>
</g>
<defs>
<clipPath id="clip0_3341_20597">
<rect width="11.6667" height="10" fill="white" transform="translate(0.333496)"/>
</clipPath>
</defs>
</svg>
