<svg width="20" height="20" viewBox="0 0 20 20" fill="none" xmlns="http://www.w3.org/2000/svg">
<path d="M16.4725 9.99942C16.5268 10.0523 16.5701 10.1154 16.5999 10.1851C16.6296 10.2549 16.6452 10.3298 16.6458 10.4056C16.6463 10.4814 16.6318 10.5566 16.603 10.6267C16.5742 10.6969 16.5318 10.7606 16.4782 10.8142C16.4246 10.8678 16.3609 10.9103 16.2907 10.939C16.2206 10.9678 16.1454 10.9823 16.0696 10.9818C15.9938 10.9813 15.9188 10.9657 15.8491 10.9359C15.7794 10.9062 15.7163 10.8628 15.6634 10.8085L10.6069 5.75192C10.0435 5.1886 9.14756 5.1886 8.58424 5.75192C8.02091 6.31525 8.02091 7.21122 8.58424 7.77454L9.42805 8.61835L9.42805 7.9768C9.42642 7.86153 9.45964 7.74845 9.52338 7.65238C9.58712 7.55632 9.67839 7.48175 9.78524 7.43844C9.89208 7.39514 10.0095 7.38513 10.1222 7.40971C10.2348 7.4343 10.3374 7.49234 10.4164 7.57623C10.5184 7.68446 10.5742 7.82813 10.5721 7.9768V9.99942C10.5721 10.1511 10.5118 10.2966 10.4045 10.4039C10.2973 10.5111 10.1518 10.5714 10.0001 10.5714H7.97745C7.90135 10.573 7.82571 10.5593 7.75495 10.5313C7.6842 10.5032 7.61975 10.4614 7.56538 10.4081C7.51101 10.3548 7.46782 10.2912 7.43834 10.2211C7.40885 10.1509 7.39367 10.0755 7.39367 9.99942C7.39367 9.92331 7.40885 9.84796 7.43834 9.77779C7.46782 9.70762 7.51101 9.64403 7.56538 9.59076C7.61975 9.53749 7.6842 9.4956 7.75495 9.46755C7.82571 9.4395 7.90135 9.42585 7.97745 9.4274H8.619L7.77519 8.58359C6.77462 7.58302 6.77462 5.94344 7.77519 4.94287C8.77576 3.94231 10.4153 3.94231 11.4159 4.94287L16.4725 9.99942ZM12.0227 11.213C12.0771 11.2658 12.1204 11.329 12.1501 11.3987C12.1799 11.4684 12.1955 11.5434 12.196 11.6192C12.1966 11.695 12.182 11.7702 12.1532 11.8403C12.1245 11.9105 12.0821 11.9742 12.0285 12.0278C11.9748 12.0814 11.9111 12.1238 11.841 12.1526C11.7708 12.1814 11.6957 12.1959 11.6198 12.1954C11.544 12.1948 11.4691 12.1792 11.3993 12.1495C11.3296 12.1197 11.2665 12.0764 11.2136 12.022L11.0114 11.8198C10.957 11.7669 10.9137 11.7038 10.8839 11.6341C10.8542 11.5643 10.8386 11.4894 10.8381 11.4136C10.8375 11.3378 10.8521 11.2626 10.8808 11.1925C10.9096 11.1223 10.952 11.0586 11.0056 11.005C11.0592 10.9514 11.123 10.9089 11.1931 10.8802C11.2633 10.8514 11.3384 10.8369 11.4142 10.8374C11.49 10.8379 11.565 10.8535 11.6347 10.8833C11.7045 10.9131 11.7676 10.9564 11.8204 11.0107L12.0227 11.213ZM12.8136 12.903L12.923 13.2123L12.9254 13.2526L12.923 13.3379L12.891 13.6559L12.876 13.7397L12.8361 13.8981L12.5398 14.2679L12.0665 14.2876L11.7406 13.9435L11.7268 13.616L11.7568 13.4999L11.7845 13.2234L11.7979 13.2249L11.9551 12.8283L12.4015 12.6703L12.8136 12.903ZM11.406 14.6242L11.7221 14.9774L11.664 15.4471L11.4195 15.6663L11.2547 15.7433L11.2034 15.7647L11.0082 15.8342L10.9553 15.85L10.8253 15.8828L10.3596 15.7979L10.117 15.391L10.2644 14.941L10.5464 14.7735L10.6448 14.7486L10.789 14.6977L10.9328 14.6305L11.406 14.6242ZM9.28465 14.5159L9.51693 14.9284L9.35892 15.3748L8.91844 15.549L8.60913 15.4396L8.5313 15.3823L8.48548 15.3451L8.32509 15.2006L8.30376 15.18L8.15483 15.0311L7.98891 14.5878L8.21369 14.1711L8.67549 14.0664L8.96387 14.222L9.10016 14.3583L9.22816 14.4745L9.28465 14.5159ZM7.66853 12.9267L7.83445 13.3699L7.60967 13.7867L7.14786 13.8914L6.85948 13.7357L6.48933 13.3656L6.32301 12.922L6.54779 12.5052L7.0096 12.4005L7.29837 12.5565L7.66853 12.9267ZM6.00263 11.2608L6.16855 11.704L5.94377 12.1208L5.48197 12.2255L5.19358 12.0698L4.82343 11.6997L4.65712 11.2561L4.88189 10.8393L5.3437 10.7346L5.63248 10.8906L6.00263 11.2608ZM4.33674 9.5949C4.3911 9.64775 4.43441 9.71087 4.46417 9.7806C4.49392 9.85033 4.50952 9.92529 4.51006 10.0011C4.5106 10.0769 4.49606 10.1521 4.46729 10.2222C4.43853 10.2924 4.39611 10.3561 4.3425 10.4097C4.28889 10.4633 4.22516 10.5057 4.15501 10.5345C4.08487 10.5633 4.0097 10.5778 3.93389 10.5773C3.85807 10.5767 3.78312 10.5611 3.71339 10.5314C3.64366 10.5016 3.58053 10.4583 3.52769 10.4039L3.32543 10.2017C3.27106 10.1488 3.22775 10.0857 3.19799 10.016C3.16824 9.94625 3.15264 9.8713 3.1521 9.79549C3.15157 9.71967 3.1661 9.64451 3.19487 9.57436C3.22363 9.50422 3.26605 9.44049 3.31966 9.38688C3.37327 9.33327 3.437 9.29085 3.50715 9.26208C3.5773 9.23331 3.65246 9.21878 3.72827 9.21931C3.80409 9.21985 3.87904 9.23545 3.94877 9.2652C4.0185 9.29496 4.08163 9.33827 4.13447 9.39264L4.33674 9.5949Z" fill="#583DFF"/>
<g clip-path="url(#clip0_3147_69033)">
<circle cx="4.27899" cy="9.99942" r="2.57437" fill="white"/>
<path d="M4.27915 7.42529C2.85964 7.42529 1.70477 8.58016 1.70477 9.99967C1.70477 11.4192 2.85964 12.574 4.27915 12.574C5.69866 12.574 6.85352 11.4192 6.85352 9.99967C6.85352 8.58016 5.69866 7.42529 4.27915 7.42529ZM4.27915 11.5443C4.13691 11.5443 4.02171 11.4291 4.02171 11.2869C4.02171 11.1446 4.13691 11.0294 4.27915 11.0294C4.42138 11.0294 4.53659 11.1446 4.53659 11.2869C4.53659 11.4291 4.42138 11.5443 4.27915 11.5443ZM4.66402 10.1254C4.53633 10.2249 4.47223 10.2749 4.47223 10.4502C4.47223 10.5569 4.38586 10.6433 4.27915 10.6433C4.17244 10.6433 4.08607 10.5569 4.08607 10.4502C4.08607 10.0862 4.28288 9.93286 4.42666 9.82088C4.56516 9.71288 4.6653 9.63488 4.6653 9.35607C4.6653 9.14317 4.49205 8.96992 4.27915 8.96992C4.06625 8.96992 3.89299 9.14317 3.89299 9.35607V9.42043C3.89299 9.52714 3.80662 9.61351 3.69991 9.61351C3.59321 9.61351 3.50684 9.52714 3.50684 9.42043V9.35607C3.50684 8.93014 3.85322 8.58376 4.27915 8.58376C4.70508 8.58376 5.05146 8.93014 5.05146 9.35607C5.05146 9.82345 4.82749 9.99799 4.66402 10.1254Z" fill="#583DFF"/>
</g>
<rect x="1.43961" y="7.16013" width="5.67908" height="5.67908" rx="2.83954" stroke="#EDEAFF" stroke-width="0.53033"/>
<defs>
<clipPath id="clip0_3147_69033">
<rect x="1.70477" y="7.42529" width="5.14875" height="5.14875" rx="2.57437" fill="white"/>
</clipPath>
</defs>
</svg>
