<svg width="102" height="27" viewBox="0 0 102 27" fill="none" xmlns="http://www.w3.org/2000/svg">
    <path d="M81.6551 11.1745C81.7933 10.5261 82.0051 9.89432 82.2722 9.28001C82.8524 7.94181 83.6353 6.77768 84.6392 5.78576C85.6431 4.79477 86.8127 4.00824 88.1481 3.42893C89.4836 2.8487 90.9111 2.55859 92.4308 2.55859C93.7938 2.55859 95.0649 2.79251 96.2345 3.26038C97.4042 3.72825 98.408 4.37386 99.2646 5.19631C100.112 6.01968 100.784 7.00238 101.272 8.1435C101.751 9.28461 102 10.5197 102 11.8477C102 13.3444 101.705 14.7618 101.125 16.0991C100.545 17.4373 99.7619 18.6014 98.758 19.5933C97.7541 20.5852 96.5845 21.3708 95.2491 21.9511C93.9136 22.5304 92.4861 22.8205 90.9664 22.8205C89.6034 22.8205 88.3324 22.5865 87.1627 22.1187C85.9931 21.6517 84.9892 21.0061 84.1326 20.1827C83.2853 19.3594 82.613 18.3776 82.1249 17.2365C82.0236 16.9961 81.9314 16.752 81.8578 16.5043C81.7472 16.7336 81.6275 16.9584 81.5078 17.1803C80.8539 18.3583 80.0526 19.3686 79.1224 20.2104C78.183 21.0531 77.1239 21.7125 75.9358 22.1896C74.7477 22.6667 73.4951 22.9052 72.1873 22.9052C70.8427 22.9052 69.5901 22.6759 68.4389 22.2172C67.2876 21.7586 66.3022 21.1323 65.4825 20.3375C64.6628 19.5417 64.0089 18.5876 63.53 17.4741C63.4287 17.2319 63.3366 16.9851 63.2537 16.7336C62.7103 17.8084 62.0195 18.7617 61.1814 19.5933C60.1775 20.5852 59.0079 21.3708 57.6725 21.9511C56.337 22.5304 54.9095 22.8205 53.3899 22.8205C52.0268 22.8205 50.7558 22.5865 49.5862 22.1187C48.4165 21.6517 47.4126 21.0061 46.5561 20.1827C45.7087 19.3594 45.0364 18.3776 44.5483 17.2365C44.1062 16.1865 43.8668 15.0574 43.8299 13.8491C43.2589 14.2902 42.6142 14.6522 41.8959 14.9349C40.9841 15.2904 40.017 15.4682 38.9947 15.4682H33.1004L31.6083 22.5119H26.8928L31.0742 2.86711H40.2288C42.0616 2.86711 43.5537 3.4096 44.7049 4.49545C45.3956 5.1512 45.8837 5.92113 46.16 6.80345C46.4363 6.4461 46.7403 6.10719 47.0626 5.78576C48.0665 4.79477 49.2361 4.00824 50.5716 3.42893C51.907 2.8487 53.3345 2.55859 54.8542 2.55859C56.2173 2.55859 57.4883 2.79251 58.658 3.26038C59.8276 3.72825 60.8315 4.37386 61.688 5.19631C62.5353 6.01968 63.2076 7.00238 63.6957 8.1435C63.8062 8.41611 63.9076 8.69426 63.9997 8.977C64.5707 7.84694 65.2983 6.84399 66.1732 5.96812C67.1863 4.94858 68.3836 4.13993 69.7467 3.54129C71.1098 2.94264 72.5558 2.64332 74.0662 2.64332C75.77 2.64332 77.3449 3.01724 78.8 3.76508C80.246 4.51385 81.3697 5.5242 82.1525 6.79609L78.4501 9.88327C77.962 8.9853 77.2988 8.29271 76.4515 7.80642C75.6134 7.32014 74.6832 7.077 73.6793 7.077C72.8505 7.077 72.0768 7.24554 71.3492 7.58263C70.6217 7.91879 69.9861 8.38203 69.4519 8.97147C68.9178 9.56091 68.4942 10.248 68.1718 11.0336C67.8587 11.8201 67.7021 12.6619 67.7021 13.5599C67.7021 15.0003 68.1626 16.1884 69.0928 17.1241C70.0138 18.0589 71.2111 18.5268 72.6663 18.5268C73.753 18.5268 74.7293 18.2321 75.595 17.6427C76.4699 17.0532 77.0686 16.2823 77.4094 15.3273H71.3308L72.2334 11.1745H81.6551ZM97.1463 12.1563C97.1463 10.6781 96.6674 9.44855 95.728 8.46585C94.7794 7.48406 93.5821 6.99318 92.1177 6.99318C91.3164 6.99318 90.552 7.1562 89.8336 7.48407C89.1153 7.81103 88.4889 8.25586 87.9639 8.81675C87.439 9.37856 87.0245 10.038 86.7206 10.795C86.4075 11.553 86.2509 12.3626 86.2509 13.2228C86.2509 14.701 86.7299 15.9314 87.6693 16.9132C88.6179 17.8959 89.8151 18.3868 91.2795 18.3868C92.0808 18.3868 92.8453 18.2229 93.5637 17.8959C94.282 17.5681 94.9083 17.1241 95.4333 16.5623C95.9582 16.0014 96.3727 15.342 96.6766 14.584C96.9897 13.8261 97.1463 13.0174 97.1463 12.1563ZM59.5697 12.1563C59.5697 10.6781 59.0908 9.44855 58.1514 8.46585C57.2028 7.48406 56.0055 6.99318 54.5411 6.99318C53.7398 6.99318 52.9754 7.1562 52.257 7.48407C51.5387 7.81103 50.9123 8.25586 50.3874 8.81675C49.8624 9.37856 49.4479 10.038 49.144 10.795C48.8309 11.553 48.6743 12.3626 48.6743 13.2228C48.6743 14.701 49.1533 15.9314 50.0927 16.9132C51.0413 17.8959 52.2386 18.3868 53.7029 18.3868C54.5042 18.3868 55.2687 18.2229 55.9871 17.8959C56.7055 17.5681 57.3317 17.1241 57.8567 16.5623C58.3816 16.0014 58.7961 15.342 59.1 14.584C59.4132 13.8261 59.5697 13.0174 59.5697 12.1563ZM39.3815 6.99318H34.9239L33.966 11.483H38.9026C39.6763 11.483 40.3117 11.2537 40.8275 10.795C41.3432 10.3373 41.6011 9.76169 41.6011 9.0691C41.6011 8.43362 41.3985 7.92799 40.9932 7.55407C40.5972 7.18015 40.0538 6.99318 39.3815 6.99318Z" fill="white"/>
    <path fill-rule="evenodd" clip-rule="evenodd" d="M5.08775 8.55906C5.19358 8.23748 5.31433 7.91994 5.45002 7.60515C6.04975 6.22387 6.8693 5.02171 7.90323 3.99728C8.93173 2.97828 10.1312 2.16822 11.5057 1.57256C12.8992 0.968754 14.385 0.662109 15.963 0.662109C17.4026 0.662109 18.7377 0.91581 19.9698 1.40971C21.2303 1.9131 22.3158 2.61459 23.233 3.50197C24.1598 4.3975 24.8911 5.46404 25.4217 6.70557C25.944 7.93217 26.2127 9.25783 26.2127 10.6852C26.2127 12.247 25.9074 13.7245 25.3022 15.1207C25.2263 15.2944 25.0661 15.635 25.058 15.6513L25.0499 15.6689C22.8328 20.2103 18.925 23.7762 14.1475 25.5496L12.7961 26.0502L11.6712 25.1493C9.81776 23.6636 8.23701 21.8509 7.0172 19.7979H10.0579C10.9711 21.0598 12.0498 22.1914 13.2628 23.1642C17.4257 21.6188 20.8314 18.5103 22.7636 14.5523C22.7636 14.5523 22.902 14.2591 22.9671 14.1085C23.4338 13.0312 23.6686 11.8901 23.6686 10.6852C23.6686 9.61604 23.4718 8.6214 23.0811 7.70281C22.6889 6.78421 22.1502 5.99313 21.465 5.32963C20.7798 4.66748 19.9671 4.14787 19.0254 3.77202C18.0837 3.39481 17.0634 3.20622 15.963 3.20622C14.7432 3.20622 13.5953 3.43962 12.5179 3.90638C11.4406 4.37314 10.4989 5.00669 9.69292 5.80453C8.90187 6.58879 8.27502 7.50614 7.80961 8.55906H5.08775ZM1.02667 15.2525H7.70785C7.97651 16.0408 8.29942 16.8047 8.67392 17.5374H1.99274C1.61825 16.8047 1.29533 16.0408 1.02667 15.2525ZM0.486648 10.8209H7.16646C7.11219 11.2199 7.08368 11.6268 7.08368 12.0406C7.08368 12.3649 7.1027 12.6812 7.13797 12.9919H0.456801C0.421522 12.6812 0.431016 11.2199 0.486648 10.8209Z" fill="white"/>
    <path d="M19.1874 11.1835C19.1874 11.708 19.086 12.2048 18.8826 12.6735C18.6793 13.1425 18.4023 13.5505 18.0514 13.8982C17.7006 14.2458 17.2909 14.5212 16.8219 14.7245C16.3532 14.9276 15.8532 15.0293 15.3219 15.0293C14.8435 15.0293 14.399 14.9473 13.9894 14.7833C13.5794 14.6196 13.2253 14.3934 12.927 14.1048C12.6285 13.8162 12.3941 13.4721 12.2237 13.0721C12.0532 12.6719 11.968 12.2393 11.968 11.7735C11.968 11.249 12.0697 10.7522 12.2727 10.2835C12.4761 9.81448 12.7531 9.40647 13.1039 9.05882C13.4548 8.71149 13.8648 8.43582 14.3335 8.23278C14.8025 8.02941 15.3022 7.92773 15.8335 7.92773C16.3122 7.92773 16.7564 8.00972 17.1663 8.1737C17.576 8.33768 17.9301 8.56396 18.2287 8.85222C18.5269 9.1408 18.7613 9.48523 18.9317 9.88517C19.1022 10.2851 19.1874 10.718 19.1874 11.1835Z" fill="white"/>
</svg>
