<svg width="12" height="12" viewBox="0 0 12 12" fill="none" xmlns="http://www.w3.org/2000/svg">
<path d="M2.55018 0.578857C1.46349 0.578857 0.578857 1.46349 0.578857 2.55018V9.44982C0.578857 10.5365 1.46349 11.4212 2.55018 11.4212H9.44982C10.5365 11.4212 11.4212 10.5365 11.4212 9.44982V2.7966C11.4212 2.5354 11.3177 2.28404 11.1329 2.09922L9.90078 0.867145C9.71597 0.682333 9.46461 0.578857 9.20341 0.578857H8.71058V3.53585C8.71058 4.08043 8.26949 4.52151 7.72491 4.52151H4.02868C3.4841 4.52151 3.04302 4.08043 3.04302 3.53585V0.578857H2.55018ZM6.24642 0.825273C5.97462 0.825273 5.75359 1.04631 5.75359 1.3181V3.28943C5.75359 3.56123 5.97462 3.78226 6.24642 3.78226H6.98567C7.25746 3.78226 7.4785 3.56123 7.4785 3.28943V1.3181C7.4785 1.04631 7.25746 0.825273 6.98567 0.825273H6.24642ZM4.27509 6.24642H7.72491C8.40502 6.24642 8.95699 6.79839 8.95699 7.4785V9.44982H3.04302V7.4785C3.04302 6.79839 3.59499 6.24642 4.27509 6.24642Z" fill="#583DFF"/>
</svg>
