<svg width="12" height="10" viewBox="0 0 12 10" fill="none" xmlns="http://www.w3.org/2000/svg">
<path d="M6.3704 0.0656738C3.34745 0.0656738 0.887939 2.52518 0.887939 5.54813C0.887939 7.28887 1.70488 8.84195 2.9717 9.84522C3.04423 9.90267 3.13402 9.93398 3.22655 9.93409H9.51371C9.60642 9.9341 9.69641 9.90279 9.76909 9.84522C11.0362 8.84195 11.8529 7.28887 11.8529 5.54813C11.8529 2.52518 9.39334 0.0656738 6.3704 0.0656738ZM6.3704 0.888042C8.94887 0.888042 11.0305 2.96965 11.0305 5.54813C11.0305 6.98657 10.3707 8.25665 9.34827 9.11173H3.39199C2.36982 8.25665 1.71031 6.98655 1.71031 5.54813C1.71031 2.96965 3.79192 0.888042 6.3704 0.888042ZM6.3704 1.98453C4.4072 1.98453 2.8068 3.58493 2.8068 5.54813C2.8068 6.434 3.13227 7.24883 3.66932 7.87228C3.70384 7.91546 3.7467 7.95123 3.79536 7.97747C3.84401 8.0037 3.89745 8.01986 3.95249 8.02497C4.00753 8.03009 4.06304 8.02405 4.11569 8.00723C4.16835 7.9904 4.21707 7.96314 4.25894 7.92706C4.30082 7.89098 4.335 7.84682 4.35942 7.79724C4.38385 7.74765 4.39803 7.69365 4.40111 7.63846C4.4042 7.58327 4.39612 7.52802 4.37737 7.47602C4.35862 7.42402 4.32958 7.37634 4.29199 7.33582C3.87838 6.85566 3.62917 6.23353 3.62917 5.54813C3.62917 4.02942 4.85168 2.8069 6.3704 2.8069C6.66213 2.8069 6.94216 2.8521 7.20508 2.93593C7.25701 2.95426 7.31209 2.96196 7.36706 2.95859C7.42203 2.95522 7.47576 2.94085 7.52506 2.91632C7.57437 2.89179 7.61825 2.85761 7.65409 2.8158C7.68994 2.774 7.71702 2.72542 7.73373 2.67294C7.75045 2.62047 7.75645 2.56518 7.75139 2.51034C7.74633 2.4555 7.7303 2.40224 7.70427 2.35372C7.67823 2.30519 7.64271 2.26239 7.59982 2.22785C7.55693 2.19331 7.50754 2.16774 7.45457 2.15265C7.11222 2.04349 6.74752 1.98453 6.3704 1.98453ZM8.48682 3.00875C8.38003 3.01186 8.27865 3.05641 8.20413 3.13296L6.58241 4.75467C6.5133 4.73584 6.44203 4.72612 6.3704 4.72576C6.15229 4.72576 5.94312 4.8124 5.78889 4.96663C5.63467 5.12085 5.54803 5.33002 5.54803 5.54813C5.54803 5.76624 5.63467 5.97541 5.78889 6.12963C5.94312 6.28386 6.15229 6.3705 6.3704 6.3705C6.49647 6.37043 6.62085 6.34138 6.73391 6.28558C6.84697 6.22978 6.94569 6.14874 7.02243 6.0487C7.09918 5.94867 7.15189 5.83234 7.17651 5.70868C7.20112 5.58503 7.19697 5.45737 7.16439 5.33558L8.78557 3.7144C8.84489 3.65663 8.88539 3.58229 8.90176 3.50112C8.91813 3.41995 8.90962 3.33573 8.87734 3.25948C8.84506 3.18323 8.79051 3.11849 8.72083 3.07376C8.65115 3.02902 8.56959 3.00636 8.48682 3.00875ZM9.36272 4.17216C9.29841 4.17372 9.23536 4.19034 9.17864 4.22069C9.12192 4.25105 9.07311 4.29428 9.03614 4.34693C8.99917 4.39958 8.97506 4.46016 8.96576 4.52382C8.95646 4.58747 8.96223 4.65242 8.98259 4.71345C9.06642 4.97636 9.11162 5.25639 9.11162 5.54813C9.11162 6.23322 8.86249 6.85533 8.4488 7.33582C8.41235 7.37656 8.38439 7.42415 8.36655 7.47583C8.34871 7.5275 8.34135 7.58221 8.34491 7.63676C8.34846 7.69131 8.36286 7.74461 8.38725 7.79353C8.41165 7.84245 8.44555 7.88602 8.48698 7.92168C8.52841 7.95735 8.57653 7.98439 8.62854 8.00124C8.68055 8.01808 8.73539 8.02439 8.78986 8.01979C8.84433 8.01519 8.89734 7.99978 8.94579 7.97445C8.99423 7.94912 9.03714 7.91439 9.072 7.87228C9.60897 7.24861 9.93399 6.43376 9.93399 5.54813C9.93399 5.17101 9.87503 4.8063 9.76588 4.46395C9.7398 4.37794 9.68626 4.30284 9.61345 4.25015C9.54064 4.19745 9.45258 4.17006 9.36272 4.17216Z" fill="#B2B0BC"/>
</svg>
