<svg width="11" height="8" viewBox="0 0 11 8" fill="none" xmlns="http://www.w3.org/2000/svg">
<path d="M10.2492 0.721388C10.1319 0.724884 10.0206 0.773919 9.93876 0.858106L4.3871 6.40977L1.99673 4.0194C1.95511 3.97605 1.90527 3.94145 1.85012 3.91761C1.79496 3.89377 1.7356 3.88118 1.67552 3.88057C1.61544 3.87996 1.55584 3.89134 1.50021 3.91405C1.44458 3.93676 1.39404 3.97035 1.35156 4.01283C1.30907 4.05532 1.27549 4.10586 1.25278 4.16149C1.23006 4.21711 1.21868 4.27672 1.21929 4.3368C1.2199 4.39688 1.2325 4.45624 1.25634 4.51139C1.28017 4.56655 1.31478 4.61639 1.35812 4.65801L4.0678 7.36768C4.15249 7.45234 4.26735 7.4999 4.3871 7.4999C4.50686 7.4999 4.62171 7.45234 4.70641 7.36768L10.5774 1.49672C10.6426 1.43328 10.6872 1.35161 10.7053 1.26241C10.7233 1.17321 10.714 1.08063 10.6785 0.996819C10.643 0.913006 10.5831 0.841864 10.5065 0.792716C10.4299 0.743567 10.3402 0.718705 10.2492 0.721388Z" fill="#41BE7B" stroke="#41BE7B"/>
</svg>
