<svg width="12" height="12" viewBox="0 0 12 12" fill="none" xmlns="http://www.w3.org/2000/svg">
<defs>
<clipPath id="clip0_3341_18540">
<rect width="11.4286" height="12" fill="white" transform="translate(0.571533)"/>
</clipPath>
</defs>
<g clip-path="url(#clip0_3341_18540)">
<path d="M6.28587 0.327393C4.79249 0.327393 3.57753 1.60302 3.57753 3.17114C3.57753 4.73927 4.79249 6.01489 6.28587 6.01489C7.77924 6.01489 8.9942 4.73927 8.9942 3.17114C8.9942 1.60302 7.77924 0.327393 6.28587 0.327393ZM6.21287 6.86601C3.84172 6.86601 1.77571 8.14208 1.07127 10.0409C0.93206 10.416 0.98574 10.8367 1.21568 11.1671C1.44859 11.5021 1.83085 11.7024 2.23818 11.7024H3.33262C3.31745 11.613 3.3067 11.5228 3.3067 11.4316C3.3067 10.2166 4.61537 9.26489 6.28587 9.26489C7.95637 9.26489 9.26503 10.2166 9.26503 11.4316C9.26503 11.5228 9.25428 11.613 9.23911 11.7024H10.1876C10.5946 11.7024 10.9769 11.5026 11.2101 11.1676C11.4397 10.8372 11.4942 10.4157 11.355 10.0409C10.6506 8.14181 8.58401 6.86628 6.21287 6.86601ZM6.28587 10.3482C5.16868 10.3482 4.39003 10.9191 4.39003 11.4316C4.39003 11.5223 4.41569 11.6127 4.46092 11.7024H8.11082C8.15605 11.6127 8.1817 11.5223 8.1817 11.4316C8.1817 10.9191 7.40305 10.3482 6.28587 10.3482Z" fill="#D1CFDB"/>
</g>
</svg>
