<svg width="11" height="12" viewBox="0 0 11 12" fill="none" xmlns="http://www.w3.org/2000/svg">
<g clip-path="url(#clip0_3341_20593)">
<path d="M3.24462 0.0476074C2.02556 0.0476074 1.10034 1.18796 1.35136 2.38089C1.35192 2.38361 1.3525 2.38633 1.35311 2.38903L1.88208 4.68686C1.16856 5.51607 0.734619 6.59059 0.734619 7.76536C0.734619 9.536 1.71438 11.0826 3.16149 11.8954C3.22826 11.9328 3.30352 11.9524 3.38006 11.9524H7.61299C7.68952 11.9524 7.76479 11.9328 7.83155 11.8954C9.27867 11.0826 10.2584 9.536 10.2584 7.76536C10.2584 6.57335 9.81076 5.48539 9.07842 4.6514L9.59983 2.38903C9.60044 2.38633 9.60102 2.38361 9.60157 2.38089C9.85258 1.18796 8.92738 0.0476074 7.70832 0.0476074H3.24462ZM3.24462 0.940465H7.70832C8.37954 0.940465 8.86574 1.53921 8.7279 2.19604L8.32216 3.95851C7.53033 3.37405 6.55464 3.0238 5.49652 3.0238C4.42291 3.0238 3.43385 3.38399 2.63601 3.98408L2.22504 2.19663V2.19604C2.08719 1.53923 2.5734 0.940465 3.24462 0.940465ZM5.49652 3.91666C7.63973 3.91666 9.36557 5.63576 9.36557 7.76536C9.36557 9.17288 8.60183 10.3872 7.47116 11.0595H3.52247C2.39179 10.3872 1.62748 9.17288 1.62748 7.76536C1.62748 5.63576 3.35332 3.91666 5.49652 3.91666ZM6.51785 5.99999C5.77945 5.99999 5.17856 6.60088 5.17856 7.33927V8.23213C5.17856 8.97052 5.77945 9.57142 6.51785 9.57142C7.25624 9.57142 7.85713 8.97052 7.85713 8.23213V7.33927C7.85713 6.60088 7.25624 5.99999 6.51785 5.99999ZM4.18049 6.00057C4.15134 6.00302 4.12223 6.00907 4.09388 6.01859L3.20102 6.31621C3.00608 6.38139 2.90072 6.59211 2.9656 6.78705C3.03078 6.98169 3.2412 7.08676 3.43644 7.02247L3.83927 6.8882V9.19939C3.83927 9.40475 4.00594 9.57142 4.2113 9.57142C4.41666 9.57142 4.58332 9.40475 4.58332 9.19939V6.37201C4.58332 6.25237 4.52572 6.13998 4.4287 6.06974C4.35593 6.01729 4.26795 5.99322 4.18049 6.00057ZM6.51785 6.74404C6.84612 6.74404 7.11308 7.011 7.11308 7.33927V8.23213C7.11308 8.5604 6.84612 8.82737 6.51785 8.82737C6.18957 8.82737 5.92261 8.5604 5.92261 8.23213V7.33927C5.92261 7.011 6.18957 6.74404 6.51785 6.74404Z" fill="#B2B0BC"/>
</g>
<defs>
<clipPath id="clip0_3341_20593">
<rect width="9.71429" height="12" fill="white" transform="translate(0.619141)"/>
</clipPath>
</defs>
</svg>
