<svg width="35" height="35" viewBox="0 0 35 35" fill="none" xmlns="http://www.w3.org/2000/svg">
    <rect x="0.945801" y="0.357666" width="33.9685" height="34" rx="5.48289" fill="#F7F7F7" fill-opacity="0.09"/>
    <path d="M16.625 11.0188C15.356 11.0188 14.3072 12.0104 14.2108 13.256H13.642C13.1643 13.256 12.7338 13.4761 12.3938 13.7869C12.0537 14.0978 11.7813 14.5039 11.5562 14.9704C11.1061 15.9033 10.8455 17.0877 10.8455 18.2898V21.6457C10.8455 22.7716 11.7703 23.6965 12.8963 23.6965H22.9638C24.0898 23.6965 25.0146 22.7716 25.0146 21.6457V18.2898C25.0146 17.0877 24.754 15.9033 24.3038 14.9704C24.0787 14.5039 23.8064 14.0978 23.4663 13.7869C23.1263 13.4761 22.6958 13.256 22.2181 13.256H21.6493C21.5529 12.0104 20.5041 11.0188 19.2351 11.0188H16.625ZM16.625 12.1374H19.2351C19.8983 12.1374 20.4323 12.6198 20.5219 13.256H15.3381C15.4278 12.6198 15.9618 12.1374 16.625 12.1374ZM13.8284 14.3746H22.0316V15.5807C22.0316 16.1578 21.8921 16.6584 21.6529 17.003C21.4138 17.3475 21.0961 17.5617 20.5802 17.6191L19.7522 17.7108C19.6483 17.0965 19.1306 16.6119 18.4893 16.6119H17.3707C16.7295 16.6119 16.2118 17.0965 16.1079 17.7108L15.2799 17.6191C14.764 17.5617 14.4463 17.3475 14.2071 17.003C13.968 16.6584 13.8284 16.1578 13.8284 15.5807V14.3746ZM12.7098 15.183V15.5807C12.7098 16.3336 12.8839 17.0569 13.2888 17.6402C13.6937 18.2235 14.3501 18.6416 15.1561 18.7311L16.0657 18.8316V19.0356C16.0657 19.7496 16.6567 20.3406 17.3707 20.3406H18.4893C19.2034 20.3406 19.7944 19.7496 19.7944 19.0356V18.8316L20.704 18.7311C21.51 18.6416 22.1664 18.2235 22.5713 17.6402C22.9762 17.0569 23.1503 16.3336 23.1503 15.5807V15.183C23.2005 15.2688 23.2497 15.3596 23.2966 15.4569C23.6561 16.2019 23.896 17.2547 23.896 18.2898V21.6457C23.896 22.167 23.4852 22.5778 22.9638 22.5778H12.8963C12.3749 22.5778 11.9641 22.167 11.9641 21.6457V18.2898C11.9641 17.2547 12.2039 16.2019 12.5634 15.4569C12.6104 15.3596 12.6596 15.2688 12.7098 15.183ZM17.3707 17.7305H18.4893C18.5994 17.7305 18.6758 17.8069 18.6758 17.9169V19.0356C18.6758 19.1456 18.5994 19.222 18.4893 19.222H17.3707C17.2607 19.222 17.1843 19.1456 17.1843 19.0356V17.9169C17.1843 17.8069 17.2607 17.7305 17.3707 17.7305Z" fill="white" fill-opacity="0.51"/>
</svg>
