<svg width="15" height="16" viewBox="0 0 15 16" fill="none" xmlns="http://www.w3.org/2000/svg">
<path d="M14 6.6H1M10.3889 1V3.8M4.61111 1V3.8M6.41667 9.4L7.5 8.7V12.2M6.59722 12.2H8.40278M4.46667 15H10.5333C11.7468 15 12.3535 15 12.817 14.7711C13.2247 14.5698 13.5561 14.2485 13.7638 13.8534C14 13.4042 14 12.8161 14 11.64V5.76C14 4.58389 14 3.99583 13.7638 3.54662C13.5561 3.15148 13.2247 2.83022 12.817 2.62889C12.3535 2.4 11.7468 2.4 10.5333 2.4H4.46667C3.25322 2.4 2.6465 2.4 2.18302 2.62889C1.77534 2.83022 1.44388 3.15148 1.23615 3.54662C1 3.99583 1 4.58389 1 5.76V11.64C1 12.8161 1 13.4042 1.23615 13.8534C1.44388 14.2485 1.77534 14.5698 2.18302 14.7711C2.6465 15 3.25322 15 4.46667 15Z" stroke="white" stroke-opacity="0.7" stroke-width="2" stroke-linecap="round" stroke-linejoin="round"/>
</svg>
