<svg width="16" height="16" viewBox="0 0 16 16" fill="none" xmlns="http://www.w3.org/2000/svg">
    <path fill-rule="evenodd" clip-rule="evenodd" d="M15.1013 1.1324C14.6581 0.688402 14.0341 0.530002 13.4317 0.706802L1.61333 4.1852C0.96453 4.3772 0.50613 4.9132 0.41573 5.5852C0.32453 6.25719 0.62613 6.89639 1.20213 7.25239L5.30053 9.78791C5.42739 9.86639 5.59166 9.84679 5.69651 9.74063L10.6157 4.762C10.8485 4.526 11.2277 4.5244 11.4637 4.7564C11.6997 4.99 11.7013 5.3692 11.4685 5.6052L6.53533 10.5978C6.43181 10.7027 6.41317 10.8647 6.49037 10.9903L9.00293 15.0796C9.31733 15.59 9.85093 15.8852 10.4333 15.8852C10.5101 15.8852 10.5877 15.8804 10.6661 15.8692C11.3373 15.7796 11.8725 15.3188 12.0621 14.6676L15.5293 2.8084C15.7069 2.2036 15.5469 1.5772 15.1013 1.1324Z" fill="#64678B"/>
</svg>
