<svg width="20" height="18" viewBox="0 0 20 18" fill="none" xmlns="http://www.w3.org/2000/svg">
<path d="M15.4438 12.4106C16.7626 13.0607 17.8932 14.104 18.7185 15.4086C18.8819 15.6669 18.9636 15.7961 18.9919 15.975C19.0493 16.3385 18.796 16.7854 18.451 16.9292C18.2812 17 18.0902 17 17.7083 17M13.6322 8.58421C14.9744 7.92968 15.8967 6.57054 15.8967 5C15.8967 3.42946 14.9744 2.07032 13.6322 1.41579M11.8207 5C11.8207 7.20914 9.99576 9 7.74462 9C5.49348 9 3.66857 7.20914 3.66857 5C3.66857 2.79086 5.49348 1 7.74462 1C9.99576 1 11.8207 2.79086 11.8207 5ZM1.45775 15.1674C2.90185 13.0396 5.18067 11.6667 7.74462 11.6667C10.3086 11.6667 12.5874 13.0396 14.0315 15.1674C14.3479 15.6336 14.506 15.8666 14.4878 16.1644C14.4736 16.3962 14.3188 16.68 14.13 16.8201C13.8876 17 13.5542 17 12.8874 17H2.60187C1.93504 17 1.60163 17 1.3592 16.8201C1.17045 16.68 1.01559 16.3962 1.00141 16.1644C0.983202 15.8666 1.14138 15.6336 1.45775 15.1674Z" stroke="white" stroke-width="2" stroke-linecap="round" stroke-linejoin="round"/>
</svg>
