<svg width="25" height="24" viewBox="0 0 25 24" fill="none" xmlns="http://www.w3.org/2000/svg">
    <path d="M20.5 8.5L12 2.5L4 9.5V20L8.5 20.5V12H15.5V20.5L19 21L20.5 19.7379V8.5Z" fill="#F6F6F6"/>
    <path d="M13.2824 2.76376C12.931 2.4905 12.7554 2.35388 12.5614 2.30136C12.3902 2.25502 12.2099 2.25502 12.0387 2.30136C11.8447 2.35388 11.6691 2.4905 11.3177 2.76375L4.53544 8.03888C4.08207 8.3915 3.85539 8.56781 3.69208 8.78861C3.54741 8.9842 3.43965 9.20454 3.37408 9.43881C3.30005 9.70327 3.30005 9.99045 3.30005 10.5648V17.7997C3.30005 18.9198 3.30005 19.4799 3.51804 19.9077C3.70978 20.284 4.01574 20.59 4.39207 20.7818C4.81989 20.9997 5.37994 20.9997 6.50005 20.9997H8.50005C8.78007 20.9997 8.92009 20.9997 9.02704 20.9452C9.12113 20.8973 9.19762 20.8208 9.24555 20.7267C9.30005 20.6198 9.30005 20.4798 9.30005 20.1997V13.5997C9.30005 13.0397 9.30005 12.7597 9.40904 12.5457C9.50492 12.3576 9.6579 12.2046 9.84606 12.1087C10.06 11.9997 10.34 11.9997 10.9 11.9997H13.7C14.2601 11.9997 14.5401 11.9997 14.754 12.1087C14.9422 12.2046 15.0952 12.3576 15.1911 12.5457C15.3 12.7597 15.3 13.0397 15.3 13.5997V20.1997C15.3 20.4798 15.3 20.6198 15.3545 20.7267C15.4025 20.8208 15.479 20.8973 15.5731 20.9452C15.68 20.9997 15.82 20.9997 16.1 20.9997H18.1C19.2202 20.9997 19.7802 20.9997 20.208 20.7818C20.5844 20.59 20.8903 20.284 21.0821 19.9077C21.3 19.4799 21.3 18.9198 21.3 17.7997V10.5648C21.3 9.99045 21.3 9.70327 21.226 9.43881C21.1604 9.20454 21.0527 8.9842 20.908 8.78861C20.7447 8.56781 20.518 8.3915 20.0647 8.03888L13.2824 2.76376Z" stroke="white" stroke-width="2" stroke-linecap="round" stroke-linejoin="round"/>
</svg>
