<svg width="18" height="19" viewBox="0 0 18 19" fill="none" xmlns="http://www.w3.org/2000/svg">
    <path fill-rule="evenodd" clip-rule="evenodd" d="M16.2693 7.77661L3.29588 0.664897C2.58452 0.276097 1.7426 0.336577 1.09652 0.829057C0.448519 1.3225 0.162439 2.12218 0.349639 2.9161L1.6839 8.55863C1.72501 8.73249 1.8806 8.85508 2.05925 8.85431L10.4479 8.81822H10.4508C10.8472 8.81822 11.1688 9.13885 11.1708 9.53533C11.1727 9.93373 10.8511 10.2563 10.4536 10.2582L2.04883 10.2953C1.87144 10.296 1.71767 10.4182 1.67684 10.5909L0.349639 16.2025C0.162439 16.9965 0.448519 17.7971 1.09652 18.2915C1.46132 18.5689 1.88948 18.7101 2.32052 18.7101C2.65172 18.7101 2.98676 18.6265 3.29588 18.4566L16.2693 11.3449C16.9298 10.9821 17.3244 10.3158 17.3244 9.56029C17.3244 8.80573 16.9298 8.13853 16.2693 7.77661Z" fill="#64678B"/>
</svg>
