<svg width="24" height="24" viewBox="0 0 24 24" fill="none" xmlns="http://www.w3.org/2000/svg">
    <path fill-rule="evenodd" clip-rule="evenodd" d="M15.5702 14.2703C14.8992 15.8025 13.3834 16.7922 11.7072 16.7922C10.0301 16.7922 8.5123 15.8025 7.84126 14.2703C7.6819 13.9065 7.84798 13.4812 8.21278 13.3218C8.57374 13.1615 9.00094 13.3276 9.16126 13.6924C9.60192 14.7004 10.6013 15.3522 11.7072 15.3522C12.8112 15.3522 13.8096 14.7004 14.2502 13.6924C14.4106 13.3276 14.8349 13.1615 15.1987 13.3218C15.5635 13.4812 15.7296 13.9065 15.5702 14.2703ZM18.983 6.79191C17.3587 4.72983 14.9376 3.45975 12.3398 3.30807C9.73824 3.15831 7.19326 4.12791 5.35582 5.97111C2.66302 8.67351 1.92766 12.8217 3.51742 16.2709C3.62302 16.534 3.9427 17.1311 4.46974 18.046C4.55806 18.2005 4.54942 18.3877 4.44574 18.5337C4.23166 18.8351 3.9619 19.221 3.75262 19.5369C3.48094 19.9449 3.45598 20.4661 3.68638 20.8981C3.91582 21.3263 4.35934 21.5913 4.84318 21.5913H4.8451L5.43166 21.5903C7.70878 21.5903 10.9882 21.5884 11.7754 21.5913H11.807C14.496 21.5913 17.039 20.4037 18.7882 18.3301C21.5693 15.0306 21.6518 10.1778 18.983 6.79191Z" fill="#FFBB38"/>
</svg>
