<svg width="23" height="22" viewBox="0 0 23 22" fill="none" xmlns="http://www.w3.org/2000/svg">
    <path d="M5.09436 10.2288C5.03221 9.82823 4.99996 9.41786 4.99996 9C4.99996 8.3094 5.08804 7.63924 5.25365 7M13.0526 1C12.6958 1 12.3445 1.02305 12 1.06773C10.3725 1.27881 8.8977 1.97271 7.72613 3C7.03492 3.60609 6.44924 4.32823 6 5.13573M11.8227 16.9073C12.2237 16.9683 12.6344 17 13.0526 17C14.0524 17 15.0097 16.819 15.893 16.4881C16.0823 16.4172 16.177 16.3817 16.2511 16.3661C16.3245 16.3507 16.3763 16.3452 16.4512 16.3448C16.527 16.3443 16.6101 16.3565 16.7765 16.3809L19.9617 16.8478C20.3146 16.8995 20.4911 16.9254 20.6211 16.8695C20.735 16.8205 20.8266 16.731 20.8782 16.6182C20.9371 16.4895 20.9153 16.3125 20.8717 15.9585L20.4692 12.6883C20.4493 12.5272 20.4394 12.4466 20.4411 12.3735C20.4428 12.301 20.4489 12.2512 20.4646 12.1804C20.4804 12.109 20.5154 12.0175 20.5852 11.8345C20.7015 11.5294 20.7997 11.2155 20.8782 10.8939C21.0266 10.2868 21.1052 9.6525 21.1052 9C21.1052 8.83207 21.1 8.66536 21.0898 8.5M5.25365 7C5.42413 6.342 5.67674 5.71677 6 5.13573M5.25365 7L6 5.13573M6.63158 21C9.59648 21 12 18.5376 12 15.5C12 12.4624 9.59648 10 6.63158 10C3.66668 10 1.26316 12.4624 1.26316 15.5C1.26316 16.1106 1.36028 16.6979 1.53955 17.2467C1.61533 17.4787 1.65322 17.5947 1.66566 17.6739C1.67864 17.7567 1.68091 17.8031 1.67608 17.8867C1.67145 17.9668 1.65141 18.0573 1.61134 18.2383L1 21L3.9948 20.591C4.15827 20.5687 4.24 20.5575 4.31137 20.558C4.38652 20.5585 4.42641 20.5626 4.50011 20.5773C4.5701 20.5912 4.67416 20.6279 4.88227 20.7014C5.43059 20.8949 6.01911 21 6.63158 21Z" stroke="black" stroke-width="2" stroke-linecap="round" stroke-linejoin="round"/>
    <path d="M18 6.5V1.5M15.5 4H20.5" stroke="black" stroke-width="1.6" stroke-linecap="round" stroke-linejoin="round"/>
</svg>
