<svg width="21" height="20" viewBox="0 0 21 20" fill="none" xmlns="http://www.w3.org/2000/svg">
    <path fill-rule="evenodd" clip-rule="evenodd" d="M13.9544 12.756H7.13041C6.6947 12.756 6.34108 12.4035 6.34108 11.9691C6.34108 11.5347 6.6947 11.1821 7.13041 11.1821H13.9544C14.3901 11.1821 14.7437 11.5347 14.7437 11.9691C14.7437 12.4035 14.3901 12.756 13.9544 12.756ZM7.13041 6.43848H10.5698C11.0055 6.43848 11.3591 6.79102 11.3591 7.22543C11.3591 7.65982 11.0055 8.01237 10.5698 8.01237H7.13041C6.6947 8.01237 6.34108 7.65982 6.34108 7.22543C6.34108 6.79102 6.6947 6.43848 7.13041 6.43848ZM18.1158 3.8248C16.335 1.56997 13.6797 0.182871 10.8318 0.0170901C7.986 -0.14974 5.19076 0.911047 3.17639 2.9277C0.223232 5.88028 -0.582938 10.4151 1.16201 14.1851C1.27673 14.4726 1.62719 15.1252 2.20288 16.1241C2.30181 16.2941 2.29128 16.4987 2.17867 16.6582C1.94398 16.9876 1.64824 17.4094 1.41881 17.7546C1.11991 18.1995 1.09255 18.7692 1.34514 19.2414C1.59667 19.7094 2.09974 19.9612 2.61754 20L3.26584 19.999C5.76224 19.9979 9.35208 19.9969 10.213 20H10.2477C13.1956 20 15.9846 18.7021 17.9011 16.4357C20.95 12.8295 21.0405 7.52552 18.1158 3.8248Z" fill="black"/>
</svg>
