<svg width="68" height="96" viewBox="0 0 68 96" fill="none" xmlns="http://www.w3.org/2000/svg">
    <path d="M28.2041 81.4763C28.2041 77.1112 28.2052 72.7449 28.2041 68.3798C28.2041 67.3752 28.1995 67.3581 27.1942 67.2133C17.7871 65.8654 9.49221 61.9724 1.89749 56.3496C-0.70732 54.4213 -0.565012 51.5945 1.92368 50.0403C2.94602 49.4017 3.87046 48.5921 4.78693 47.7996C5.29013 47.3651 5.6533 47.4039 6.17016 47.771C7.99171 49.0676 9.8884 50.2603 11.6781 51.5991C14.3205 53.5752 17.2588 54.9481 20.3327 56.0474C25.2384 57.8012 30.2784 58.7032 35.5085 58.1832C39.3064 57.8058 42.9347 56.759 46.4537 55.313C51.6337 53.1841 56.4153 50.3584 60.8872 46.9945C61.7069 46.3776 61.7092 46.3719 62.4936 46.9649C63.6127 47.8098 64.7386 48.6479 65.8407 49.5157C67.7191 50.9947 67.7613 53.3814 65.868 54.8546C58.0638 60.9302 49.4137 65.1972 39.6343 67.0001C39.0389 67.1095 38.4366 67.1859 37.8344 67.2486C37.4564 67.2885 37.3038 67.471 37.3175 67.8393C37.3289 68.1426 37.3175 68.4471 37.3175 68.7504C37.3175 77.3301 37.3198 85.9086 37.3152 94.4883C37.3152 95.9399 37.4461 95.77 36.0458 95.7757C33.8475 95.7837 31.6491 95.7814 29.4507 95.7757C28.1266 95.7734 28.2075 95.916 28.2063 94.5727C28.2063 90.2076 28.2063 85.8414 28.2063 81.4763H28.2041Z" fill="#7047E7"/>
    <path d="M31.9255 4.90183L31.9256 4.90183C42.91 4.94257 51.767 13.8476 51.7507 24.8404C51.7344 35.82 42.8458 44.6818 31.8431 44.669C20.9031 44.6562 11.9556 35.6779 11.9835 24.7545C12.0114 13.8247 21.0262 4.86118 31.9255 4.90183Z" stroke="#7047E7" stroke-width="8.10075"/>
</svg>
