<svg width="22" height="22" viewBox="0 0 22 22" fill="none" xmlns="http://www.w3.org/2000/svg">
<path d="M8.25008 10.5415L10.0834 12.3748L14.2084 8.24984M18.3334 10.9998C18.3334 15.4992 13.4256 18.7717 11.6399 19.8135C11.437 19.9319 11.3355 19.9911 11.1923 20.0218C11.0812 20.0456 10.919 20.0456 10.8079 20.0218C10.6647 19.9911 10.5632 19.9319 10.3603 19.8135C8.57455 18.7717 3.66675 15.4992 3.66675 10.9998V6.61597C3.66675 5.88309 3.66675 5.51665 3.78661 5.20165C3.8925 4.92339 4.06457 4.67509 4.28793 4.47824C4.54079 4.25541 4.8839 4.12674 5.57012 3.86941L10.4851 2.02629C10.6757 1.95483 10.771 1.9191 10.869 1.90493C10.9559 1.89237 11.0442 1.89237 11.1312 1.90493C11.2292 1.9191 11.3245 1.95483 11.5151 2.02629L16.43 3.86941C17.1163 4.12674 17.4594 4.25541 17.7122 4.47824C17.9356 4.67509 18.1077 4.92339 18.2136 5.20165C18.3334 5.51665 18.3334 5.88309 18.3334 6.61597V10.9998Z" stroke="white" stroke-opacity="0.7" stroke-width="2" stroke-linecap="round" stroke-linejoin="round"/>
</svg>
