<svg width="14" height="15" viewBox="0 0 14 15" fill="none" xmlns="http://www.w3.org/2000/svg">
<path d="M13.6667 7.49992C13.6667 11.1759 10.676 14.1666 7.00004 14.1666C5.93904 14.1666 4.88737 13.9099 3.94504 13.4236L1.39137 14.1366C1.31771 14.1566 1.24271 14.1666 1.16804 14.1666C0.949708 14.1666 0.736041 14.0806 0.577707 13.9226C0.365374 13.7099 0.283707 13.3986 0.364374 13.1096L1.07737 10.5573C0.590041 9.61392 0.333374 8.56159 0.333374 7.49992C0.333374 3.82359 3.32404 0.833252 7.00004 0.833252C10.676 0.833252 13.6667 3.82359 13.6667 7.49992ZM7.00004 6.83325C6.63171 6.83325 6.33337 7.13159 6.33337 7.49992C6.33337 7.86825 6.63171 8.16659 7.00004 8.16659C7.36837 8.16659 7.66671 7.86825 7.66671 7.49992C7.66671 7.13159 7.36837 6.83325 7.00004 6.83325ZM9.33337 6.83325C8.96504 6.83325 8.66671 7.13159 8.66671 7.49992C8.66671 7.86825 8.96504 8.16659 9.33337 8.16659C9.70171 8.16659 10 7.86825 10 7.49992C10 7.13159 9.70171 6.83325 9.33337 6.83325ZM4.66671 6.83325C4.29837 6.83325 4.00004 7.13159 4.00004 7.49992C4.00004 7.86825 4.29837 8.16659 4.66671 8.16659C5.03504 8.16659 5.33337 7.86825 5.33337 7.49992C5.33337 7.13159 5.03504 6.83325 4.66671 6.83325Z" fill="#583DFF"/>
</svg>
