<svg width="24" height="24" viewBox="0 0 24 24" fill="none" xmlns="http://www.w3.org/2000/svg">
    <path fill-rule="evenodd" clip-rule="evenodd" d="M12.6758 11.6321L17.4199 13.1704C17.8607 13.3134 17.8607 13.9371 17.4199 14.0801L12.6758 15.6183C12.5299 15.666 12.416 15.7799 12.3683 15.9258L10.8301 20.6699C10.6871 21.1107 10.0634 21.1107 9.92039 20.6699L8.38214 15.9258C8.33544 15.7799 8.22063 15.666 8.07469 15.6183L3.33056 14.0801C2.88981 13.9371 2.88981 13.3134 3.33056 13.1704L8.07469 11.6321C8.22063 11.5845 8.33544 11.4706 8.38214 11.3247L9.92039 6.58056C10.0634 6.13981 10.6871 6.13981 10.8301 6.58056L12.3683 11.3247C12.416 11.4706 12.5299 11.5845 12.6758 11.6321Z" stroke="#201C2C" stroke-width="2" stroke-linecap="round" stroke-linejoin="round"/>
    <path d="M20.9999 8.97686H18.3438M19.6718 7.64844V10.3046" stroke="#201C2C" stroke-width="2" stroke-linecap="round" stroke-linejoin="round"/>
    <path d="M15.6875 3V6.98425M17.6796 4.99219H13.6953" stroke="#201C2C" stroke-width="2" stroke-linecap="round" stroke-linejoin="round"/>
</svg>
